<?xml version="1.0" encoding="UTF-8"?>
<!DOCTYPE svg PUBLIC "-//W3C//DTD SVG 1.1//EN" "http://www.w3.org/Graphics/SVG/1.1/DTD/svg11.dtd">
<svg xmlns="http://www.w3.org/2000/svg" version="1.1" width="1024px" height="1024px" style="shape-rendering:geometricPrecision; text-rendering:geometricPrecision; image-rendering:optimizeQuality; fill-rule:evenodd; clip-rule:evenodd" xmlns:xlink="http://www.w3.org/1999/xlink">
<g><path style="opacity:0.531" fill="#f8f1e0" d="M -0.5,-0.5 C 340.833,-0.5 682.167,-0.5 1023.5,-0.5C 1023.5,29.5 1023.5,59.5 1023.5,89.5C 1023.17,89.5 1022.83,89.5 1022.5,89.5C 1022.5,59.8333 1022.5,30.1667 1022.5,0.5C 681.833,0.5 341.167,0.5 0.5,0.5C 0.5,341.167 0.5,681.833 0.5,1022.5C 31.8333,1022.5 63.1667,1022.5 94.5,1022.5C 94.5,1022.83 94.5,1023.17 94.5,1023.5C 62.8333,1023.5 31.1667,1023.5 -0.5,1023.5C -0.5,682.167 -0.5,340.833 -0.5,-0.5 Z"/></g>
<g><path style="opacity:0.998" fill="#050705" d="M 896.5,202.5 C 898.364,204.218 900.697,205.385 903.5,206C 904.701,206.903 905.535,208.069 906,209.5C 906.168,305.403 906.668,401.237 907.5,497C 906.989,501.599 905.989,506.099 904.5,510.5C 902.255,512.623 899.588,513.623 896.5,513.5C 794.167,513.5 691.833,513.5 589.5,513.5C 587.574,512.758 585.741,511.758 584,510.5C 583.667,510.833 583.333,511.167 583,511.5C 563.863,510.815 544.697,510.149 525.5,509.5C 525.5,508.833 525.167,508.5 524.5,508.5C 524.5,507.833 524.167,507.5 523.5,507.5C 522.89,506.609 522.557,505.609 522.5,504.5C 522.5,498.833 522.5,493.167 522.5,487.5C 522.5,401.833 522.5,316.167 522.5,230.5C 522.799,227.358 524.466,225.191 527.5,224C 546.497,223.5 565.497,223.333 584.5,223.5C 584.334,219.154 584.501,214.821 585,210.5C 586.076,207.921 587.909,206.254 590.5,205.5C 647.002,205.832 703.336,205.499 759.5,204.5C 765.301,197.5 770.635,190 775.5,182C 760.578,183.207 745.911,184.54 731.5,186C 731,186.5 730.5,187 730,187.5C 728.6,186.884 727.1,186.551 725.5,186.5C 676.962,191.278 628.462,193.945 580,194.5C 577.739,194.439 575.739,195.106 574,196.5C 561.402,195.17 548.902,195.17 536.5,196.5C 533.753,196.187 531.086,196.52 528.5,197.5C 523.84,207.542 516.34,210.542 506,206.5C 505.667,206.833 505.333,207.167 505,207.5C 502.583,204.598 500.416,201.598 498.5,198.5C 498.672,197.508 498.338,196.842 497.5,196.5C 494.359,195.679 491.025,195.179 487.5,195C 438.264,194.139 389.264,192.472 340.5,190C 344.424,190.799 344.424,191.299 340.5,191.5C 340.167,189.925 338.167,189.092 334.5,189C 306.425,186.994 278.425,184.66 250.5,182C 255.809,188.797 260.476,195.964 264.5,203.5C 264.611,204.117 264.944,204.617 265.5,205C 333.833,205.5 402.166,205.667 470.5,205.5C 473.562,206.268 475.228,208.268 475.5,211.5C 475.5,333.167 475.5,454.833 475.5,576.5C 475.456,580.09 473.789,582.59 470.5,584C 354.5,584.667 238.5,584.667 122.5,584C 118.911,582.326 117.245,579.493 117.5,575.5C 117.5,557.167 117.5,538.833 117.5,520.5C 117.5,520.167 117.5,519.833 117.5,519.5C 117.5,417.5 117.5,315.5 117.5,213.5C 117.722,207.443 120.889,204.11 127,203.5C 153.738,204.558 180.572,204.558 207.5,203.5C 210.855,198.111 214.188,192.777 217.5,187.5C 218.725,186.063 219.725,184.396 220.5,182.5C 220.167,181.5 219.5,180.833 218.5,180.5C 214.939,181.794 214.606,180.96 217.5,178C 207.129,176.139 196.796,174.472 186.5,173C 187.167,173.333 187.833,173.667 188.5,174C 187.167,174.667 185.833,174.667 184.5,174C 185.634,172.984 185.301,172.317 183.5,172C 177.682,171.909 173.016,169.743 169.5,165.5C 167.715,163.823 167.049,161.989 167.5,160C 168.793,156.781 170.46,153.781 172.5,151C 174.725,149.869 177.058,149.036 179.5,148.5C 187.475,150.665 195.475,151.832 203.5,152C 202.833,152.333 202.167,152.667 201.5,153C 207.477,154.236 213.477,154.903 219.5,155C 214.206,154.182 214.206,153.682 219.5,153.5C 219.149,142.17 224.483,135.503 235.5,133.5C 242.094,134.258 246.927,137.591 250,143.5C 251.664,148.792 251.997,154.126 251,159.5C 259.243,160.356 267.743,160.356 276.5,159.5C 276.5,160.5 276.5,161.5 276.5,162.5C 280.607,163.15 284.107,162.15 287,159.5C 288.119,160.552 288.619,161.719 288.5,163C 320.81,166.72 353.477,168.387 386.5,168C 381.5,168.333 376.5,168.667 371.5,169C 377.748,169.188 383.915,169.688 390,170.5C 390.167,170.167 390.333,169.833 390.5,169.5C 386.714,168.271 386.714,167.604 390.5,167.5C 394.865,167.96 395.199,168.793 391.5,170C 398.5,170.667 405.5,170.667 412.5,170C 414.792,167.976 415.459,168.31 414.5,171C 441.547,171.835 468.547,173.002 495.5,174.5C 496.308,174.192 496.975,173.692 497.5,173C 495.582,171.23 495.082,169.063 496,166.5C 496.333,168.167 496.667,169.833 497,171.5C 498.257,161.579 503.924,156.579 514,156.5C 518.393,156.629 522.06,158.295 525,161.5C 527.396,165.624 529.063,169.957 530,174.5C 540.059,173.883 550.392,173.216 561,172.5C 563.76,172.419 566.593,172.753 569.5,173.5C 576.989,173.153 584.323,172.153 591.5,170.5C 592.696,170.846 592.696,171.346 591.5,172C 595.094,172.207 598.594,171.707 602,170.5C 616.762,171.245 631.595,171.245 646.5,170.5C 646.5,169.5 646.5,168.5 646.5,167.5C 647.552,167.351 648.552,167.517 649.5,168C 648.044,168.423 647.544,169.256 648,170.5C 649.399,169.773 650.899,169.273 652.5,169C 649.937,168.237 649.937,167.737 652.5,167.5C 654.373,167.482 654.706,167.982 653.5,169C 693.746,167.756 733.746,164.756 773.5,160C 774.658,158.991 775.325,157.658 775.5,156C 773.779,150.661 774.446,145.661 777.5,141C 776.167,139.16 776.334,138.66 778,139.5C 786.702,131.23 795.036,131.564 803,140.5C 805.202,145.227 805.702,150.061 804.5,155C 809.407,155.823 813.907,154.99 818,152.5C 827.397,152.559 837.063,151.225 847,148.5C 855.187,150.871 858.187,156.205 856,164.5C 854.833,167 853,168.833 850.5,170C 835.449,172.896 820.449,175.896 805.5,179C 807.991,179.626 807.991,180.459 805.5,181.5C 807.836,186.175 810.669,190.508 814,194.5C 815.666,193.66 815.833,194.16 814.5,196C 816.291,198.414 817.957,200.914 819.5,203.5C 826.476,204.664 833.476,204.831 840.5,204C 837.5,203.667 834.5,203.333 831.5,203C 839.833,202.333 848.167,202.333 856.5,203C 854.167,203.333 851.833,203.667 849.5,204C 856.833,204.667 864.167,204.667 871.5,204C 869.5,203.667 867.5,203.333 865.5,203C 868.934,202.109 872.101,202.609 875,204.5C 878.669,204.056 882.503,204.056 886.5,204.5C 889.5,204.333 892.5,204.167 895.5,204C 893.068,202.913 893.402,202.413 896.5,202.5 Z M 787.5,203.5 C 786.637,204.463 785.97,204.463 785.5,203.5C 786.333,201.833 787.167,200.167 788,198.5C 788.333,198.833 788.667,199.167 789,199.5C 788.923,198.262 789.089,197.262 789.5,196.5C 790.962,199.13 792.629,201.63 794.5,204C 792.924,203.848 791.591,203.015 790.5,201.5C 789.261,201.942 788.261,202.609 787.5,203.5 Z M 233.5,200.5 C 233.369,199.624 233.702,198.957 234.5,198.5C 235.425,199.641 236.259,199.641 237,198.5C 238.301,200.402 238.968,202.402 239,204.5C 236.87,204.413 234.703,204.413 232.5,204.5C 231.579,202.969 231.912,201.635 233.5,200.5 Z"/></g>
<g><path style="opacity:0.012" fill="#2d2b23" d="M 806.5,152.5 C 807.289,152.783 807.956,153.283 808.5,154C 807.184,154.528 806.517,154.028 806.5,152.5 Z"/></g>
<g><path style="opacity:0.018" fill="#2a2922" d="M 751.5,160.5 C 754.976,159.357 758.642,159.19 762.5,160C 759.443,160.256 756.443,160.756 753.5,161.5C 752.817,161.137 752.15,160.804 751.5,160.5 Z"/></g>
<g><path style="opacity:0.004" fill="#2a2a22" d="M 277.5,159.5 C 279.927,159.523 282.26,160.023 284.5,161C 283.333,161.167 282.167,161.333 281,161.5C 279.319,161.392 278.152,160.725 277.5,159.5 Z"/></g>
<g><path style="opacity:0.005" fill="#2c2d25" d="M 291.5,159.5 C 292.267,160.172 292.934,161.005 293.5,162C 291.939,162.188 291.272,161.355 291.5,159.5 Z"/></g>
<g><path style="opacity:0.008" fill="#2d2d24" d="M 293.5,160.5 C 296.557,159.03 297.057,159.697 295,162.5C 294.722,161.584 294.222,160.918 293.5,160.5 Z"/></g>
<g><path style="opacity:0.004" fill="#3f3c31" d="M 169.5,165.5 C 169.483,167.028 168.816,167.528 167.5,167C 168.044,166.283 168.711,165.783 169.5,165.5 Z"/></g>
<g><path style="opacity:0.008" fill="#2c2c24" d="M 399.5,167.5 C 401.414,168.185 403.414,168.685 405.5,169C 403.167,169.667 400.833,169.667 398.5,169C 399.056,168.617 399.389,168.117 399.5,167.5 Z"/></g>
<g><path style="opacity:0.009" fill="#302f26" d="M 631.5,167.5 C 635.517,168.623 639.517,168.623 643.5,167.5C 644.308,167.808 644.975,168.308 645.5,169C 640.167,169.667 634.833,169.667 629.5,169C 630.416,168.722 631.082,168.222 631.5,167.5 Z"/></g>
<g><path style="opacity:0.004" fill="#22211a" d="M 217.5,187.5 C 216.637,188.463 215.97,188.463 215.5,187.5C 216.257,186.227 216.923,186.227 217.5,187.5 Z"/></g>
<g><path style="opacity:0.004" fill="#1f1e18" d="M 311.5,189.5 C 313.323,188.773 315.157,188.439 317,188.5C 319,189.5 319,190.5 317,191.5C 315.416,190.139 313.582,189.472 311.5,189.5 Z"/></g>
<g><path style="opacity:0.005" fill="#22201a" d="M 701.5,190.5 C 702.601,189.402 703.934,189.235 705.5,190C 704.122,191.334 702.789,191.501 701.5,190.5 Z"/></g>
<g><path style="opacity:0.007" fill="#22201a" d="M 698.5,189.5 C 701.137,191.154 700.803,191.654 697.5,191C 698.056,190.617 698.389,190.117 698.5,189.5 Z"/></g>
<g><path style="opacity:0.008" fill="#202019" d="M 536.5,196.5 C 537.978,196.238 539.311,196.571 540.5,197.5C 538.969,198.421 537.635,198.088 536.5,196.5 Z"/></g>
<g><path style="opacity:0.004" fill="#1e1e18" d="M 497.5,196.5 C 497.328,197.492 497.662,198.158 498.5,198.5C 498.083,200.645 497.083,201.312 495.5,200.5C 496.833,199.5 496.833,198.5 495.5,197.5C 495.957,196.702 496.624,196.369 497.5,196.5 Z"/></g>
<g><path style="opacity:0.007" fill="#23221b" d="M 600.5,203.5 C 597.664,203.798 597.164,203.131 599,201.5C 599.717,202.044 600.217,202.711 600.5,203.5 Z"/></g>
<g><path style="opacity:0.007" fill="#464336" d="M 134.5,201.5 C 137.137,203.154 136.803,203.654 133.5,203C 134.056,202.617 134.389,202.117 134.5,201.5 Z"/></g>
<g><path style="opacity:0.004" fill="#2c2920" d="M 191.5,201.5 C 192.473,201.987 193.473,202.487 194.5,203C 192.5,203.667 190.5,203.667 188.5,203C 189.737,202.768 190.737,202.268 191.5,201.5 Z"/></g>
<g><path style="opacity:0.008" fill="#26231c" d="M 821.5,201.5 C 822.773,202.077 822.773,202.743 821.5,203.5C 820.537,203.03 820.537,202.363 821.5,201.5 Z"/></g>
<g><path style="opacity:0.008" fill="#39372b" d="M 863.5,201.5 C 864.043,201.56 864.376,201.893 864.5,202.5C 862.235,203.647 859.902,203.814 857.5,203C 859.708,202.809 861.708,202.309 863.5,201.5 Z"/></g>
<g><path style="opacity:0.004" fill="#504c3d" d="M 896.5,202.5 C 897.053,200.343 898.053,200.51 899.5,203C 898.423,203.47 897.423,203.303 896.5,202.5 Z"/></g>
<g><path style="opacity:0.79" fill="#212019" d="M 470.5,205.5 C 402.166,205.667 333.833,205.5 265.5,205C 264.944,204.617 264.611,204.117 264.5,203.5C 266.486,204.761 268.319,204.428 270,202.5C 272.068,203.342 274.235,203.342 276.5,202.5C 280.424,202.701 280.424,203.201 276.5,204C 278.657,204.078 280.657,204.245 282.5,204.5C 283.532,202.96 284.865,202.46 286.5,203C 284.405,203.556 284.238,204.056 286,204.5C 286.945,204.095 287.612,203.428 288,202.5C 290.153,204.444 292.653,204.944 295.5,204C 293.405,203.444 293.238,202.944 295,202.5C 296.333,203.167 297.667,203.833 299,204.5C 301.52,204.402 304.02,204.402 306.5,204.5C 307.611,203.389 308.945,202.722 310.5,202.5C 312.915,204.216 315.582,204.716 318.5,204C 316.065,202.997 316.398,202.497 319.5,202.5C 320.994,202.709 322.161,203.376 323,204.5C 328.467,204.233 333.967,204.233 339.5,204.5C 340.5,203.833 341.5,203.167 342.5,202.5C 344.055,202.722 345.389,203.389 346.5,204.5C 349.125,203.031 351.958,202.365 355,202.5C 359.119,203.416 363.119,204.082 367,204.5C 367.333,203.833 367.667,203.167 368,202.5C 368.689,203.357 369.522,204.023 370.5,204.5C 373.167,201.833 375.833,201.833 378.5,204.5C 379.748,203.96 380.915,203.293 382,202.5C 383.333,202.5 384.667,202.5 386,202.5C 386.333,203.167 386.667,203.833 387,204.5C 388.693,203.816 390.193,202.816 391.5,201.5C 392.72,202.711 393.887,202.711 395,201.5C 395.456,202.744 394.956,203.577 393.5,204C 395.585,204.529 397.418,204.029 399,202.5C 400.649,203.898 401.982,203.564 403,201.5C 405.897,202.466 408.563,203.132 411,203.5C 412.676,202.939 414.009,201.939 415,200.5C 415.68,202.513 417.013,203.846 419,204.5C 423.344,203.479 427.677,202.479 432,201.5C 434.058,202.109 434.891,203.109 434.5,204.5C 435.192,203.975 435.692,203.308 436,202.5C 437.87,203.743 440.036,204.41 442.5,204.5C 451.967,203.287 461.3,203.62 470.5,205.5 Z"/></g>
<g><path style="opacity:0.765" fill="#212019" d="M 613.5,203.5 C 614.5,204.833 615.5,204.833 616.5,203.5C 621.996,203.527 627.496,203.86 633,204.5C 635.5,204.333 638,204.167 640.5,204C 641,203.5 641.5,203 642,202.5C 643.418,204.363 645.251,204.863 647.5,204C 646.833,203.667 646.167,203.333 645.5,203C 647.18,202.966 648.68,202.799 650,202.5C 650.333,203.167 650.667,203.833 651,204.5C 653.213,203.198 655.546,202.198 658,201.5C 662.352,201.957 665.852,202.957 668.5,204.5C 669.5,204.333 670.5,204.167 671.5,204C 670.304,203.346 670.304,202.846 671.5,202.5C 673.668,204.455 676.002,205.121 678.5,204.5C 679.519,203.313 680.686,202.313 682,201.5C 681.923,202.738 682.089,203.738 682.5,204.5C 683.5,203.167 684.5,203.167 685.5,204.5C 686.696,204.154 686.696,203.654 685.5,203C 686.333,202.833 687.167,202.667 688,202.5C 689.894,202.539 690.894,203.206 691,204.5C 693.56,203.385 696.06,203.385 698.5,204.5C 699.468,203.511 700.635,202.844 702,202.5C 703.537,203.114 704.87,203.114 706,202.5C 706.333,203.167 706.667,203.833 707,204.5C 708.438,203.282 710.105,202.615 712,202.5C 712.915,203.796 714.581,204.463 717,204.5C 719.438,203.631 721.771,203.631 724,204.5C 725.124,203.516 726.624,202.849 728.5,202.5C 730.376,202.849 731.876,203.516 733,204.5C 735.954,204.406 736.121,203.906 733.5,203C 735.667,202.833 737.833,202.667 740,202.5C 742.625,202.581 744.959,203.248 747,204.5C 749.201,201.396 751.367,201.229 753.5,204C 755.473,204.495 757.473,204.662 759.5,204.5C 703.336,205.499 647.002,205.832 590.5,205.5C 593.833,204.833 597.167,204.167 600.5,203.5C 602.738,204.537 605.071,204.703 607.5,204C 605.099,203.195 605.266,202.362 608,201.5C 608.991,204.581 610.824,205.248 613.5,203.5 Z"/></g>
<g><path style="opacity:0.005" fill="#23221b" d="M 616.5,203.5 C 615.5,203.5 614.5,203.5 613.5,203.5C 613.957,201.443 614.957,201.443 616.5,203.5 Z"/></g>
<g><path style="opacity:0.011" fill="#22201a" d="M 477.5,218.5 C 479.326,220.437 479.493,222.437 478,224.5C 477.505,222.527 477.338,220.527 477.5,218.5 Z"/></g>
<g><path style="opacity:0.01" fill="#212019" d="M 477.5,290.5 C 478.267,291.172 478.934,292.005 479.5,293C 478.703,296.745 478.203,300.579 478,304.5C 477.501,299.845 477.334,295.179 477.5,290.5 Z"/></g>
<g><path style="opacity:0.006" fill="#383529" d="M 115.5,309.5 C 114.733,308.828 114.066,307.995 113.5,307C 115.061,306.812 115.728,307.645 115.5,309.5 Z"/></g>
<g><path style="opacity:0.008" fill="#222019" d="M 477.5,305.5 C 478.289,305.783 478.956,306.283 479.5,307C 478.751,308.734 478.251,310.567 478,312.5C 477.503,310.19 477.337,307.857 477.5,305.5 Z"/></g>
<g><path style="opacity:0.01" fill="#212018" d="M 477.5,313.5 C 479.368,315.398 479.535,317.731 478,320.5C 477.503,318.19 477.337,315.857 477.5,313.5 Z"/></g>
<g><path style="opacity:0.999" fill="#fcf5bd" d="M 605.5,224.5 C 699.167,224.5 792.833,224.5 886.5,224.5C 886.5,314.167 886.5,403.833 886.5,493.5C 792.833,493.5 699.167,493.5 605.5,493.5C 605.5,403.833 605.5,314.167 605.5,224.5 Z"/></g>
<g><path style="opacity:0.999" fill="#f4d794" d="M 607.5,227.5 C 699.5,227.5 791.5,227.5 883.5,227.5C 883.5,315.5 883.5,403.5 883.5,491.5C 849.996,491.168 816.662,491.502 783.5,492.5C 724.833,492.5 666.167,492.5 607.5,492.5C 607.5,404.167 607.5,315.833 607.5,227.5 Z"/></g>
<g><path style="opacity:1" fill="#f1e7b9" d="M 813.5,257.5 C 814.601,256.402 815.934,256.235 817.5,257C 831.527,264.529 841.527,275.696 847.5,290.5C 851.571,291.137 855.571,291.971 859.5,293C 861.317,294.8 862.484,296.966 863,299.5C 863.667,319.5 863.667,339.5 863,359.5C 862.208,361.587 861.041,363.421 859.5,365C 854.079,367.363 848.579,369.529 843,371.5C 842.235,371.43 841.735,371.097 841.5,370.5C 847.593,368.3 853.593,365.8 859.5,363C 860.126,362.25 860.626,361.416 861,360.5C 861.667,339.5 861.667,318.5 861,297.5C 860.167,295.333 858.667,293.833 856.5,293C 853.151,292.612 849.817,292.779 846.5,293.5C 842.852,280.027 835.185,269.527 823.5,262C 820.264,260.214 816.93,258.714 813.5,257.5 Z"/></g>
<g><path style="opacity:0.996" fill="#f0e8bf" d="M 687.5,254.5 C 678.13,255.512 669.463,258.512 661.5,263.5C 660.262,263.19 660.262,262.69 661.5,262C 669.469,256.279 678.136,253.779 687.5,254.5 Z"/></g>
<g><path style="opacity:0.992" fill="#f4ebbc" d="M 808.5,255.5 C 790.947,252.369 774.613,255.369 759.5,264.5C 758.262,264.19 758.262,263.69 759.5,263C 775.477,252.991 791.81,250.491 808.5,255.5 Z"/></g>
<g><path style="opacity:0.999" fill="#050503" d="M 687.5,254.5 C 694.202,254.336 700.869,254.669 707.5,255.5C 722.769,259.099 734.769,267.433 743.5,280.5C 744.522,280.145 745.189,279.478 745.5,278.5C 749.833,273.5 754.5,268.833 759.5,264.5C 774.613,255.369 790.947,252.369 808.5,255.5C 809.93,256.537 811.597,257.204 813.5,257.5C 816.93,258.714 820.264,260.214 823.5,262C 835.185,269.527 842.852,280.027 846.5,293.5C 849.817,292.779 853.151,292.612 856.5,293C 858.667,293.833 860.167,295.333 861,297.5C 861.667,318.5 861.667,339.5 861,360.5C 860.626,361.416 860.126,362.25 859.5,363C 853.593,365.8 847.593,368.3 841.5,370.5C 839.91,370.628 838.577,371.295 837.5,372.5C 833.329,382.86 827.662,392.194 820.5,400.5C 799.91,426.092 777.243,449.758 752.5,471.5C 748.888,472.511 745.221,472.678 741.5,472C 735.652,467.643 729.985,463.143 724.5,458.5C 714.006,447.839 703.672,437.005 693.5,426C 691.735,425.36 690.068,425.527 688.5,426.5C 677.006,430.33 665.672,434.33 654.5,438.5C 650.205,440.552 645.871,440.719 641.5,439C 640.299,438.097 639.465,436.931 639,435.5C 638.333,414.5 638.333,393.5 639,372.5C 640.63,369.432 643.13,367.432 646.5,366.5C 647.756,366.539 648.756,366.039 649.5,365C 630.341,334.086 630.841,303.586 651,273.5C 654.396,269.935 657.896,266.602 661.5,263.5C 669.463,258.512 678.13,255.512 687.5,254.5 Z"/></g>
<g><path style="opacity:0.988" fill="#f7f3cd" d="M 842.5,350.5 C 842.5,339.167 842.5,327.833 842.5,316.5C 828.255,321.193 814.089,326.193 800,331.5C 799.235,331.43 798.735,331.097 798.5,330.5C 813.062,324.978 827.728,319.645 842.5,314.5C 843.825,326.66 843.825,338.66 842.5,350.5 Z"/></g>
<g><path style="opacity:0.999" fill="#f4d793" d="M 842.5,350.5 C 825.676,357.069 808.676,363.402 791.5,369.5C 790.749,368.427 789.749,368.26 788.5,369C 776.244,373.863 763.911,378.53 751.5,383C 751.728,383.399 752.062,383.565 752.5,383.5C 749.322,385.009 745.989,386.342 742.5,387.5C 742.265,386.903 741.765,386.57 741,386.5C 713.56,395.879 687.06,405.879 661.5,416.5C 661.158,417.338 660.492,417.672 659.5,417.5C 658.213,411.909 657.546,406.075 657.5,400C 657.833,394.5 658.167,389 658.5,383.5C 660.812,382.806 662.146,381.806 662.5,380.5C 662.842,379.662 663.508,379.328 664.5,379.5C 664.735,380.097 665.235,380.43 666,380.5C 673.578,377.863 681.078,375.03 688.5,372C 688.272,371.601 687.938,371.435 687.5,371.5C 687.842,370.662 688.508,370.328 689.5,370.5C 689.56,371.043 689.893,371.376 690.5,371.5C 716.781,362.437 742.114,352.77 766.5,342.5C 777.014,338.325 787.681,334.325 798.5,330.5C 798.735,331.097 799.235,331.43 800,331.5C 814.089,326.193 828.255,321.193 842.5,316.5C 842.5,327.833 842.5,339.167 842.5,350.5 Z"/></g>
<g><path style="opacity:0.999" fill="#e84331" d="M 688.5,271.5 C 704.559,270.464 717.726,276.13 728,288.5C 732.043,294.753 736.21,300.92 740.5,307C 744.898,308.378 748.398,307.212 751,303.5C 758.584,284.903 772.251,274.236 792,271.5C 804.602,271.917 814.935,276.917 823,286.5C 825.75,290.332 828.25,294.332 830.5,298.5C 775.843,318.831 721.176,339.164 666.5,359.5C 655.54,342.658 651.706,324.325 655,304.5C 659.498,286.5 670.665,275.5 688.5,271.5 Z"/></g>
<g><path style="opacity:1" fill="#f4edc4" d="M 707.5,255.5 C 708.601,254.402 709.934,254.235 711.5,255C 724.904,259.285 735.737,267.118 744,278.5C 744.69,277.262 745.19,277.262 745.5,278.5C 745.189,279.478 744.522,280.145 743.5,280.5C 734.769,267.433 722.769,259.099 707.5,255.5 Z"/></g>
<g><path style="opacity:0.481" fill="#2a2a21" d="M 522.5,230.5 C 522.5,316.167 522.5,401.833 522.5,487.5C 522.167,487.5 521.833,487.5 521.5,487.5C 521.5,486.833 521.5,486.167 521.5,485.5C 521.5,484.833 521.5,484.167 521.5,483.5C 521.5,482.167 521.5,480.833 521.5,479.5C 521.5,477.5 521.5,475.5 521.5,473.5C 521.5,473.167 521.5,472.833 521.5,472.5C 521.5,472.167 521.5,471.833 521.5,471.5C 521.5,470.5 521.5,469.5 521.5,468.5C 521.5,468.167 521.5,467.833 521.5,467.5C 521.5,467.167 521.5,466.833 521.5,466.5C 521.5,466.167 521.5,465.833 521.5,465.5C 521.5,465.167 521.5,464.833 521.5,464.5C 521.5,464.167 521.5,463.833 521.5,463.5C 521.768,461.901 521.434,460.568 520.5,459.5C 520.5,459.167 520.5,458.833 520.5,458.5C 521.338,458.158 521.672,457.492 521.5,456.5C 521.5,456.167 521.5,455.833 521.5,455.5C 521.5,454.833 521.5,454.167 521.5,453.5C 521.5,452.167 521.5,450.833 521.5,449.5C 521.5,449.167 521.5,448.833 521.5,448.5C 521.5,448.167 521.5,447.833 521.5,447.5C 521.5,446.5 521.5,445.5 521.5,444.5C 521.5,444.167 521.5,443.833 521.5,443.5C 521.5,441.5 521.5,439.5 521.5,437.5C 521.5,436.833 521.5,436.167 521.5,435.5C 521.5,435.167 521.5,434.833 521.5,434.5C 521.5,434.167 521.5,433.833 521.5,433.5C 521.5,431.5 521.5,429.5 521.5,427.5C 521.5,426.833 521.5,426.167 521.5,425.5C 521.5,425.167 521.5,424.833 521.5,424.5C 521.5,424.167 521.5,423.833 521.5,423.5C 521.5,422.833 521.5,422.167 521.5,421.5C 521.5,419.5 521.5,417.5 521.5,415.5C 521.5,414.5 521.5,413.5 521.5,412.5C 521.5,408.167 521.5,403.833 521.5,399.5C 521.5,398.5 521.5,397.5 521.5,396.5C 521.5,395.5 521.5,394.5 521.5,393.5C 521.5,392.833 521.5,392.167 521.5,391.5C 521.5,391.167 521.5,390.833 521.5,390.5C 521.5,390.167 521.5,389.833 521.5,389.5C 521.5,388.5 521.5,387.5 521.5,386.5C 521.5,385.833 521.5,385.167 521.5,384.5C 521.5,384.167 521.5,383.833 521.5,383.5C 521.5,382.5 521.5,381.5 521.5,380.5C 521.5,378.833 521.5,377.167 521.5,375.5C 521.5,374.5 521.5,373.5 521.5,372.5C 521.5,370.833 521.5,369.167 521.5,367.5C 521.5,366.167 521.5,364.833 521.5,363.5C 521.5,362.167 521.5,360.833 521.5,359.5C 521.5,358.167 521.5,356.833 521.5,355.5C 521.5,355.167 521.5,354.833 521.5,354.5C 521.5,353.5 521.5,352.5 521.5,351.5C 521.5,351.167 521.5,350.833 521.5,350.5C 521.5,350.167 521.5,349.833 521.5,349.5C 521.5,347.833 521.5,346.167 521.5,344.5C 521.5,343.833 521.5,343.167 521.5,342.5C 521.5,342.167 521.5,341.833 521.5,341.5C 521.5,340.167 521.5,338.833 521.5,337.5C 521.5,337.167 521.5,336.833 521.5,336.5C 521.5,335.167 521.5,333.833 521.5,332.5C 521.5,332.167 521.5,331.833 521.5,331.5C 521.5,331.167 521.5,330.833 521.5,330.5C 521.5,330.167 521.5,329.833 521.5,329.5C 521.5,329.167 521.5,328.833 521.5,328.5C 521.5,328.167 521.5,327.833 521.5,327.5C 521.5,326.5 521.5,325.5 521.5,324.5C 521.5,323.833 521.5,323.167 521.5,322.5C 521.5,320.833 521.5,319.167 521.5,317.5C 521.5,315.833 521.5,314.167 521.5,312.5C 521.5,310.5 521.5,308.5 521.5,306.5C 521.5,306.167 521.5,305.833 521.5,305.5C 521.5,305.167 521.5,304.833 521.5,304.5C 521.5,304.167 521.5,303.833 521.5,303.5C 521.5,302.5 521.5,301.5 521.5,300.5C 521.5,299.5 521.5,298.5 521.5,297.5C 521.5,297.167 521.5,296.833 521.5,296.5C 521.5,296.167 521.5,295.833 521.5,295.5C 521.5,294.833 521.5,294.167 521.5,293.5C 521.5,288.833 521.5,284.167 521.5,279.5C 521.5,278.5 521.5,277.5 521.5,276.5C 521.5,276.167 521.5,275.833 521.5,275.5C 521.5,274.5 521.5,273.5 521.5,272.5C 521.5,272.167 521.5,271.833 521.5,271.5C 521.5,270.833 521.5,270.167 521.5,269.5C 521.5,268.833 521.5,268.167 521.5,267.5C 521.5,267.167 521.5,266.833 521.5,266.5C 521.5,266.167 521.5,265.833 521.5,265.5C 521.5,265.167 521.5,264.833 521.5,264.5C 521.5,264.167 521.5,263.833 521.5,263.5C 521.5,262.5 521.5,261.5 521.5,260.5C 521.5,256.167 521.5,251.833 521.5,247.5C 521.5,247.167 521.5,246.833 521.5,246.5C 521.5,245.167 521.5,243.833 521.5,242.5C 521.5,241.833 521.5,241.167 521.5,240.5C 521.5,240.167 521.5,239.833 521.5,239.5C 521.19,236.287 521.523,233.287 522.5,230.5 Z"/></g>
<g><path style="opacity:0.016" fill="#212019" d="M 477.5,329.5 C 478.289,329.783 478.956,330.283 479.5,331C 478.773,332.399 478.273,333.899 478,335.5C 477.505,333.527 477.338,331.527 477.5,329.5 Z"/></g>
<g><path style="opacity:0.998" fill="#628276" d="M 583.5,247.5 C 583.5,327.5 583.5,407.5 583.5,487.5C 570.167,487.5 556.833,487.5 543.5,487.5C 543.5,407.5 543.5,327.5 543.5,247.5C 556.833,247.5 570.167,247.5 583.5,247.5 Z"/></g>
<g><path style="opacity:1" fill="#eac683" d="M 607.5,227.5 C 699.665,226.501 791.998,226.167 884.5,226.5C 884.5,315.167 884.5,403.833 884.5,492.5C 850.833,492.5 817.167,492.5 783.5,492.5C 816.662,491.502 849.996,491.168 883.5,491.5C 883.5,403.5 883.5,315.5 883.5,227.5C 791.5,227.5 699.5,227.5 607.5,227.5 Z"/></g>
<g><path style="opacity:1" fill="#f6f0c8" d="M 766.5,342.5 C 742.114,352.77 716.781,362.437 690.5,371.5C 689.893,371.376 689.56,371.043 689.5,370.5C 715.054,360.891 740.721,351.558 766.5,342.5 Z"/></g>
<g><path style="opacity:0.008" fill="#201f18" d="M 477.5,361.5 C 479.172,363.805 479.338,366.139 478,368.5C 477.503,366.19 477.337,363.857 477.5,361.5 Z"/></g>
<g><path style="opacity:0.013" fill="#1d1d17" d="M 521.5,239.5 C 521.5,239.833 521.5,240.167 521.5,240.5C 520.167,241.167 520.167,241.833 521.5,242.5C 521.5,243.833 521.5,245.167 521.5,246.5C 520.167,246.833 520.167,247.167 521.5,247.5C 521.5,251.833 521.5,256.167 521.5,260.5C 520.167,261.5 520.167,262.5 521.5,263.5C 521.5,263.833 521.5,264.167 521.5,264.5C 520.167,264.833 520.167,265.167 521.5,265.5C 521.5,265.833 521.5,266.167 521.5,266.5C 520.167,266.833 520.167,267.167 521.5,267.5C 521.5,268.167 521.5,268.833 521.5,269.5C 520.167,270.167 520.167,270.833 521.5,271.5C 521.5,271.833 521.5,272.167 521.5,272.5C 520.167,273.5 520.167,274.5 521.5,275.5C 521.5,275.833 521.5,276.167 521.5,276.5C 520.167,277.5 520.167,278.5 521.5,279.5C 521.5,284.167 521.5,288.833 521.5,293.5C 520.167,294.167 520.167,294.833 521.5,295.5C 521.5,295.833 521.5,296.167 521.5,296.5C 520.167,296.833 520.167,297.167 521.5,297.5C 521.5,298.5 521.5,299.5 521.5,300.5C 520.167,301.5 520.167,302.5 521.5,303.5C 521.5,303.833 521.5,304.167 521.5,304.5C 520.167,304.833 520.167,305.167 521.5,305.5C 521.5,305.833 521.5,306.167 521.5,306.5C 520.167,308.5 520.167,310.5 521.5,312.5C 521.5,314.167 521.5,315.833 521.5,317.5C 520.167,319.167 520.167,320.833 521.5,322.5C 521.5,323.167 521.5,323.833 521.5,324.5C 520.167,325.5 520.167,326.5 521.5,327.5C 521.5,327.833 521.5,328.167 521.5,328.5C 520.167,328.833 520.167,329.167 521.5,329.5C 521.5,329.833 521.5,330.167 521.5,330.5C 520.167,330.833 520.167,331.167 521.5,331.5C 521.5,331.833 521.5,332.167 521.5,332.5C 520.167,333.833 520.167,335.167 521.5,336.5C 521.5,336.833 521.5,337.167 521.5,337.5C 520.167,338.833 520.167,340.167 521.5,341.5C 521.5,341.833 521.5,342.167 521.5,342.5C 520.167,343.167 520.167,343.833 521.5,344.5C 521.5,346.167 521.5,347.833 521.5,349.5C 520.167,349.833 520.167,350.167 521.5,350.5C 521.5,350.833 521.5,351.167 521.5,351.5C 520.167,352.5 520.167,353.5 521.5,354.5C 521.5,354.833 521.5,355.167 521.5,355.5C 520.167,356.833 520.167,358.167 521.5,359.5C 521.5,360.833 521.5,362.167 521.5,363.5C 520.167,364.833 520.167,366.167 521.5,367.5C 521.5,369.167 521.5,370.833 521.5,372.5C 520.167,373.5 520.167,374.5 521.5,375.5C 521.5,377.167 521.5,378.833 521.5,380.5C 520.167,381.5 520.167,382.5 521.5,383.5C 521.5,383.833 521.5,384.167 521.5,384.5C 520.167,385.167 520.167,385.833 521.5,386.5C 521.5,387.5 521.5,388.5 521.5,389.5C 520.167,389.833 520.167,390.167 521.5,390.5C 521.5,390.833 521.5,391.167 521.5,391.5C 520.167,392.167 520.167,392.833 521.5,393.5C 521.5,394.5 521.5,395.5 521.5,396.5C 520.167,397.5 520.167,398.5 521.5,399.5C 521.5,403.833 521.5,408.167 521.5,412.5C 520.167,413.5 520.167,414.5 521.5,415.5C 521.5,417.5 521.5,419.5 521.5,421.5C 520.167,422.167 520.167,422.833 521.5,423.5C 521.5,423.833 521.5,424.167 521.5,424.5C 520.167,424.833 520.167,425.167 521.5,425.5C 521.5,426.167 521.5,426.833 521.5,427.5C 520.167,429.5 520.167,431.5 521.5,433.5C 521.5,433.833 521.5,434.167 521.5,434.5C 520.167,434.833 520.167,435.167 521.5,435.5C 521.5,436.167 521.5,436.833 521.5,437.5C 520.167,439.5 520.167,441.5 521.5,443.5C 521.5,443.833 521.5,444.167 521.5,444.5C 520.167,445.5 520.167,446.5 521.5,447.5C 521.5,447.833 521.5,448.167 521.5,448.5C 520.167,448.833 520.167,449.167 521.5,449.5C 521.5,450.833 521.5,452.167 521.5,453.5C 520.167,454.167 520.167,454.833 521.5,455.5C 521.5,455.833 521.5,456.167 521.5,456.5C 520.662,456.842 520.328,457.508 520.5,458.5C 520.5,458.833 520.5,459.167 520.5,459.5C 520.232,461.099 520.566,462.432 521.5,463.5C 521.5,463.833 521.5,464.167 521.5,464.5C 520.167,464.833 520.167,465.167 521.5,465.5C 521.5,465.833 521.5,466.167 521.5,466.5C 520.167,466.833 520.167,467.167 521.5,467.5C 521.5,467.833 521.5,468.167 521.5,468.5C 520.167,469.5 520.167,470.5 521.5,471.5C 521.5,471.833 521.5,472.167 521.5,472.5C 520.167,472.833 520.167,473.167 521.5,473.5C 521.5,475.5 521.5,477.5 521.5,479.5C 520.167,480.833 520.167,482.167 521.5,483.5C 521.5,484.167 521.5,484.833 521.5,485.5C 520.167,486.167 520.167,486.833 521.5,487.5C 521.833,487.5 522.167,487.5 522.5,487.5C 522.5,493.167 522.5,498.833 522.5,504.5C 521.778,504.918 521.278,505.584 521,506.5C 520.667,505.833 520.333,505.167 520,504.5C 519.833,460.333 519.667,416.167 519.5,372C 519.5,327.495 520.167,283.328 521.5,239.5 Z"/></g>
<g><path style="opacity:1" fill="#f6f0c4" d="M 687.5,371.5 C 687.938,371.435 688.272,371.601 688.5,372C 681.078,375.03 673.578,377.863 666,380.5C 665.235,380.43 664.735,380.097 664.5,379.5C 672.023,376.437 679.69,373.77 687.5,371.5 Z"/></g>
<g><path style="opacity:1" fill="#f4edc3" d="M 791.5,369.5 C 778.645,374.563 765.645,379.229 752.5,383.5C 752.062,383.565 751.728,383.399 751.5,383C 763.911,378.53 776.244,373.863 788.5,369C 789.749,368.26 790.749,368.427 791.5,369.5 Z"/></g>
<g><path style="opacity:0.586" fill="#f3ebd6" d="M 1022.5,89.5 C 1022.83,89.5 1023.17,89.5 1023.5,89.5C 1023.5,400.833 1023.5,712.167 1023.5,1023.5C 713.833,1023.5 404.167,1023.5 94.5,1023.5C 94.5,1023.17 94.5,1022.83 94.5,1022.5C 403.833,1022.5 713.167,1022.5 1022.5,1022.5C 1022.5,711.5 1022.5,400.5 1022.5,89.5 Z"/></g>
<g><path style="opacity:1" fill="#f1e9bb" d="M 742.5,387.5 C 715.581,397.362 688.581,407.029 661.5,416.5C 687.06,405.879 713.56,395.879 741,386.5C 741.765,386.57 742.265,386.903 742.5,387.5 Z"/></g>
<g><path style="opacity:0.998" fill="#faf3be" d="M 662.5,380.5 C 662.146,381.806 660.812,382.806 658.5,383.5C 658.167,389 657.833,394.5 657.5,400C 657.546,406.075 658.213,411.909 659.5,417.5C 658.279,418.028 657.113,418.695 656,419.5C 655.167,407.153 655.334,394.82 656.5,382.5C 658.323,381.253 660.323,380.586 662.5,380.5 Z"/></g>
<g><path style="opacity:1" fill="#7aa190" d="M 583.5,247.5 C 584.167,247.5 584.833,247.5 585.5,247.5C 585.5,328.167 585.5,408.833 585.5,489.5C 571.5,489.5 557.5,489.5 543.5,489.5C 543.5,488.833 543.5,488.167 543.5,487.5C 556.833,487.5 570.167,487.5 583.5,487.5C 583.5,407.5 583.5,327.5 583.5,247.5 Z"/></g>
<g><path style="opacity:0.998" fill="#e3d9ba" d="M 646.5,366.5 C 643.13,367.432 640.63,369.432 639,372.5C 638.333,393.5 638.333,414.5 639,435.5C 639.465,436.931 640.299,438.097 641.5,439C 645.871,440.719 650.205,440.552 654.5,438.5C 655.738,438.81 655.738,439.31 654.5,440C 648.956,442.42 643.789,441.92 639,438.5C 638.333,437.167 637.667,435.833 637,434.5C 636.333,414.167 636.333,393.833 637,373.5C 638.639,368.479 641.806,366.146 646.5,366.5 Z"/></g>
<g><path style="opacity:0.999" fill="#e84432" d="M 810.5,381.5 C 812.028,381.517 812.528,382.184 812,383.5C 791.727,407.94 769.894,430.94 746.5,452.5C 734.379,441.88 722.712,430.714 711.5,419C 744.588,406.444 777.588,393.944 810.5,381.5 Z"/></g>
<g><path style="opacity:0.026" fill="#474335" d="M 117.5,213.5 C 117.5,315.5 117.5,417.5 117.5,519.5C 116.82,511.098 116.154,502.598 115.5,494C 116.258,432.476 116.258,370.976 115.5,309.5C 116.831,285.098 116.831,260.598 115.5,236C 116.152,228.401 116.818,220.901 117.5,213.5 Z"/></g>
<g><path style="opacity:1" fill="#f7f2c6" d="M 724.5,458.5 C 723.761,458.631 723.094,458.464 722.5,458C 711.97,447.804 701.803,437.304 692,426.5C 690.708,427.791 689.542,427.791 688.5,426.5C 690.068,425.527 691.735,425.36 693.5,426C 703.672,437.005 714.006,447.839 724.5,458.5 Z"/></g>
<g><path style="opacity:1" fill="#faf4c8" d="M 820.5,400.5 C 821.239,400.369 821.906,400.536 822.5,401C 801.642,427.024 778.309,450.524 752.5,471.5C 777.243,449.758 799.91,426.092 820.5,400.5 Z"/></g>
<g><path style="opacity:0.999" fill="#91baa8" d="M 585.5,247.5 C 584.833,247.5 584.167,247.5 583.5,247.5C 570.167,247.5 556.833,247.5 543.5,247.5C 543.5,327.5 543.5,407.5 543.5,487.5C 543.5,488.167 543.5,488.833 543.5,489.5C 542.501,408.335 542.167,327.002 542.5,245.5C 557.206,244.85 571.539,245.517 585.5,247.5 Z"/></g>
<g><path style="opacity:0.999" fill="#ece2b6" d="M 454.5,563.5 C 454.5,562.833 454.5,562.167 454.5,561.5C 454.5,449.833 454.5,338.167 454.5,226.5C 349.167,226.5 243.833,226.5 138.5,226.5C 138.5,338.167 138.5,449.833 138.5,561.5C 138.5,562.167 138.5,562.833 138.5,563.5C 136.502,451.172 135.835,338.505 136.5,225.5C 243.167,225.5 349.833,225.5 456.5,225.5C 457.165,338.505 456.498,451.172 454.5,563.5 Z"/></g>
<g><path style="opacity:0.009" fill="#23221b" d="M 523.5,507.5 C 524.167,507.5 524.5,507.833 524.5,508.5C 525.167,508.5 525.5,508.833 525.5,509.5C 524.791,510.404 523.791,510.737 522.5,510.5C 522.263,509.209 522.596,508.209 523.5,507.5 Z"/></g>
<g><path style="opacity:0.051" fill="#363228" d="M 589.5,513.5 C 691.833,513.5 794.167,513.5 896.5,513.5C 887.765,514.179 878.932,514.846 870,515.5C 866.751,514.853 863.418,514.519 860,514.5C 856.307,514.584 852.807,515.25 849.5,516.5C 848.304,516.154 848.304,515.654 849.5,515C 847.667,514.833 845.833,514.667 844,514.5C 827.98,514.567 811.98,514.567 796,514.5C 794.779,515.272 793.779,516.272 793,517.5C 790.904,516.285 791.071,515.451 793.5,515C 791.892,514.342 790.725,514.842 790,516.5C 789.5,516 789,515.5 788.5,515C 783.667,514.833 778.833,514.667 774,514.5C 768.75,514.53 763.75,515.196 759,516.5C 758.261,515.426 757.261,514.759 756,514.5C 752.252,515.748 748.252,515.748 744,514.5C 741.698,514.6 739.698,515.267 738,516.5C 737.612,515.572 736.945,514.905 736,514.5C 734.667,515.833 733.333,515.833 732,514.5C 730.278,514.611 730.112,515.111 731.5,516C 729.5,516.667 727.5,516.667 725.5,516C 728.121,515.094 727.954,514.594 725,514.5C 723.553,514.945 722.22,515.612 721,516.5C 719.238,516.056 719.405,515.556 721.5,515C 717.667,514.833 713.833,514.667 710,514.5C 705.648,514.568 701.481,515.234 697.5,516.5C 696.304,516.154 696.304,515.654 697.5,515C 694.5,514.833 691.5,514.667 688.5,514.5C 668.921,514.306 649.421,514.639 630,515.5C 616.402,514.842 602.902,514.175 589.5,513.5 Z"/></g>
<g><path style="opacity:0.007" fill="#26241c" d="M 672.5,515.5 C 675.001,515.511 675.168,516.178 673,517.5C 672.536,516.906 672.369,516.239 672.5,515.5 Z"/></g>
<g><path style="opacity:0.304" fill="#333026" d="M 475.5,211.5 C 476.306,212.868 477.306,214.201 478.5,215.5C 478.154,216.696 477.654,216.696 477,215.5C 476.333,271.167 476.333,326.833 477,382.5C 477.333,380.833 477.667,379.167 478,377.5C 478.236,379.764 478.736,381.931 479.5,384C 478.551,384.617 477.718,384.451 477,383.5C 476.169,447.737 476.336,511.904 477.5,576C 476.906,576.464 476.239,576.631 475.5,576.5C 475.5,454.833 475.5,333.167 475.5,211.5 Z"/></g>
<g><path style="opacity:0.998" fill="#040504" d="M 513.5,842.5 C 513.5,742.5 513.5,642.5 513.5,542.5C 514.743,538.697 517.41,536.53 521.5,536C 648.905,535.511 776.239,535.344 903.5,535.5C 903.327,537.546 904.16,539.546 906,541.5C 906.171,573.405 906.671,605.238 907.5,637C 906.681,644.067 906.347,651.067 906.5,658C 906.675,659.658 907.342,660.991 908.5,662C 907.234,664.383 906.568,667.05 906.5,670C 906.187,709.866 906.52,749.866 907.5,790C 906.674,807.76 906.174,825.593 906,843.5C 903.929,847.125 900.763,849.125 896.5,849.5C 770.207,848.668 643.873,848.168 517.5,848C 515.072,846.982 513.738,845.148 513.5,842.5 Z"/></g>
<g><path style="opacity:0.019" fill="#494436" d="M 117.5,520.5 C 117.5,538.833 117.5,557.167 117.5,575.5C 116.751,574.469 116.085,573.302 115.5,572C 116.258,558.745 116.591,545.411 116.5,532C 116.333,529.5 116.167,527 116,524.5C 115.346,525.696 114.846,525.696 114.5,524.5C 115.694,523.201 116.694,521.868 117.5,520.5 Z"/></g>
<g><path style="opacity:0.998" fill="#e9c685" d="M 454.5,561.5 C 349.167,561.5 243.833,561.5 138.5,561.5C 138.5,449.833 138.5,338.167 138.5,226.5C 243.833,226.5 349.167,226.5 454.5,226.5C 454.5,338.167 454.5,449.833 454.5,561.5 Z"/></g>
<g><path style="opacity:0.999" fill="#f4d895" d="M 139.5,227.5 C 244.167,227.5 348.833,227.5 453.5,227.5C 453.5,338.5 453.5,449.5 453.5,560.5C 348.833,560.5 244.167,560.5 139.5,560.5C 139.5,449.5 139.5,338.5 139.5,227.5 Z"/></g>
<g><path style="opacity:0.999" fill="#e93c2b" d="M 297.5,522.5 C 300.785,522.269 303.285,523.603 305,526.5C 309.882,531.584 311.882,537.584 311,544.5C 307.077,552.475 300.911,554.975 292.5,552C 285.963,546.525 284.796,540.025 289,532.5C 291.669,529 294.502,525.667 297.5,522.5 Z"/></g>
<g><path style="opacity:1" fill="#f3ecc1" d="M 333.5,420.5 C 334.645,452.897 325.145,481.897 305,507.5C 302.225,510.654 299.058,511.154 295.5,509C 293.21,507.223 291.543,505.056 290.5,502.5C 292.63,504.127 294.63,505.96 296.5,508C 298.971,508.706 301.305,508.373 303.5,507C 318.863,488.273 328.03,466.773 331,442.5C 331.9,435.164 332.733,427.831 333.5,420.5 Z"/></g>
<g><path style="opacity:1" fill="#f0e9bf" d="M 268.5,449.5 C 271.755,468.992 279.089,486.659 290.5,502.5C 279.648,490.129 272.481,475.796 269,459.5C 268.5,457 268,454.5 267.5,452C 267.528,450.93 267.861,450.097 268.5,449.5 Z"/></g>
<g><path style="opacity:0.996" fill="#f7f1bf" d="M 233.5,344.5 C 237.532,353.038 244.199,358.538 253.5,361C 259.491,361.499 265.491,361.666 271.5,361.5C 269.662,367.531 267.495,373.531 265,379.5C 264.5,391.162 264.333,402.829 264.5,414.5C 264.663,416.857 264.497,419.19 264,421.5C 262.68,407.854 262.346,394.187 263,380.5C 264.823,374.687 267.323,369.187 270.5,364C 260.553,364.719 251.22,362.719 242.5,358C 238.278,354.604 234.945,350.437 232.5,345.5C 232.624,344.893 232.957,344.56 233.5,344.5 Z"/></g>
<g><path style="opacity:1" fill="#f6f1c9" d="M 327.5,362.5 C 331.846,362.334 336.179,362.501 340.5,363C 336.5,363.333 332.5,363.667 328.5,364C 331.072,368.979 333.238,374.146 335,379.5C 336.093,396.287 335.926,405.62 334.5,407.5C 334.666,398.827 334.5,390.16 334,381.5C 331.27,375.37 329.103,369.037 327.5,362.5 Z"/></g>
<g><path style="opacity:0.996" fill="#f8f4d1" d="M 325.5,317.5 C 324.304,307.539 323.637,297.539 323.5,287.5C 323.343,286.127 323.51,284.793 324,283.5C 325.471,294.453 326.304,305.453 326.5,316.5C 334.84,316.334 343.173,316.5 351.5,317C 342.84,317.5 334.173,317.666 325.5,317.5 Z"/></g>
<g><path style="opacity:1" fill="#f8f3ca" d="M 276.5,245.5 C 273.715,250.424 272.048,255.757 271.5,261.5C 272.145,267.953 273.812,274.119 276.5,280C 275.067,292.465 274.067,304.965 273.5,317.5C 270.167,317.5 266.833,317.5 263.5,317.5C 257.824,317.666 252.157,317.499 246.5,317C 255.16,316.5 263.827,316.334 272.5,316.5C 272.41,305.289 273.077,294.123 274.5,283C 272.967,276.06 271.634,269.06 270.5,262C 270.528,255.582 272.362,249.749 276,244.5C 276.399,244.728 276.565,245.062 276.5,245.5 Z"/></g>
<g><path style="opacity:0.998" fill="#f0e7bc" d="M 326.5,259.5 C 324.974,246.603 317.974,238.436 305.5,235C 297.178,233.392 289.512,234.892 282.5,239.5C 281.262,239.19 281.262,238.69 282.5,238C 296.489,229.582 309.322,231.082 321,242.5C 326.352,248.888 328.685,256.221 328,264.5C 327.802,262.618 327.302,260.952 326.5,259.5 Z"/></g>
<g><path style="opacity:0.999" fill="#040504" d="M 326.5,259.5 C 326.921,265.814 325.754,271.814 323,277.5C 322.192,281.027 322.359,284.36 323.5,287.5C 323.637,297.539 324.304,307.539 325.5,317.5C 336.063,318.071 346.73,318.904 357.5,320C 365.963,327.656 367.797,336.823 363,347.5C 359.088,355.044 352.921,359.544 344.5,361C 338.652,361.173 332.985,361.673 327.5,362.5C 329.103,369.037 331.27,375.37 334,381.5C 334.5,390.16 334.666,398.827 334.5,407.5C 333.515,411.634 333.182,415.968 333.5,420.5C 332.733,427.831 331.9,435.164 331,442.5C 328.03,466.773 318.863,488.273 303.5,507C 301.305,508.373 298.971,508.706 296.5,508C 294.63,505.96 292.63,504.127 290.5,502.5C 279.089,486.659 271.755,468.992 268.5,449.5C 266.917,437.722 265.584,426.056 264.5,414.5C 264.333,402.829 264.5,391.162 265,379.5C 267.495,373.531 269.662,367.531 271.5,361.5C 265.491,361.666 259.491,361.499 253.5,361C 244.199,358.538 237.532,353.038 233.5,344.5C 231.834,337.662 232.334,330.995 235,324.5C 236.938,321.894 239.438,320.061 242.5,319C 249.679,318.829 256.679,318.329 263.5,317.5C 266.833,317.5 270.167,317.5 273.5,317.5C 274.067,304.965 275.067,292.465 276.5,280C 273.812,274.119 272.145,267.953 271.5,261.5C 272.048,255.757 273.715,250.424 276.5,245.5C 278.5,243.5 280.5,241.5 282.5,239.5C 289.512,234.892 297.178,233.392 305.5,235C 317.974,238.436 324.974,246.603 326.5,259.5 Z"/></g>
<g><path style="opacity:0.994" fill="#8dbaa6" d="M 313.5,385.5 C 311.519,387.303 309.352,388.97 307,390.5C 306.333,415.5 306.333,440.5 307,465.5C 310.193,453.674 312.527,441.674 314,429.5C 314.483,430.448 314.649,431.448 314.5,432.5C 313.413,446.518 310.579,460.184 306,473.5C 305.333,445.5 305.333,417.5 306,389.5C 308.158,387.506 310.658,386.172 313.5,385.5 Z"/></g>
<g><path style="opacity:0.999" fill="#638576" d="M 288.5,459.5 C 285.128,446.17 283.128,432.503 282.5,418.5C 283.167,407.659 283.833,396.659 284.5,385.5C 287.43,386.547 289.93,388.213 292,390.5C 292.667,416.5 292.667,442.5 292,468.5C 290.973,465.338 289.806,462.338 288.5,459.5 Z"/></g>
<g><path style="opacity:0.997" fill="#8ab5a1" d="M 288.5,459.5 C 289.806,462.338 290.973,465.338 292,468.5C 292.667,442.5 292.667,416.5 292,390.5C 289.93,388.213 287.43,386.547 284.5,385.5C 283.833,396.659 283.167,407.659 282.5,418.5C 282.5,406.833 282.5,395.167 282.5,383.5C 286.581,384.4 290.081,386.4 293,389.5C 293.667,418.167 293.667,446.833 293,475.5C 290.572,470.456 289.072,465.123 288.5,459.5 Z"/></g>
<g><path style="opacity:1" fill="#87b09d" d="M 314.5,384.5 C 315.829,390.128 316.496,396.128 316.5,402.5C 316.352,411.18 316.018,419.846 315.5,428.5C 315.369,413.933 315.036,399.267 314.5,384.5 Z"/></g>
<g><path style="opacity:0.999" fill="#618173" d="M 314.5,384.5 C 315.036,399.267 315.369,413.933 315.5,428.5C 315.768,430.099 315.434,431.432 314.5,432.5C 314.649,431.448 314.483,430.448 314,429.5C 312.527,441.674 310.193,453.674 307,465.5C 306.333,440.5 306.333,415.5 307,390.5C 309.352,388.97 311.519,387.303 313.5,385.5C 313.5,384.833 313.833,384.5 314.5,384.5 Z"/></g>
<g><path style="opacity:0.999" fill="#6d8f7e" d="M 290.5,361.5 C 296.176,361.334 301.843,361.501 307.5,362C 308.932,371.839 304.599,375.505 294.5,373C 290.671,369.879 289.338,366.046 290.5,361.5 Z"/></g>
<g><path style="opacity:1" fill="#d64937" d="M 253.5,342.5 C 282.922,342.644 312.589,342.478 342.5,342C 344.607,340.736 345.607,338.903 345.5,336.5C 313.833,336.5 282.167,336.5 250.5,336.5C 282.483,334.507 314.816,333.841 347.5,334.5C 347.651,339.514 345.317,342.68 340.5,344C 312.5,344.667 284.5,344.667 256.5,344C 255.473,343.487 254.473,342.987 253.5,342.5 Z"/></g>
<g><path style="opacity:0.999" fill="#e23e2e" d="M 250.5,336.5 C 282.167,336.5 313.833,336.5 345.5,336.5C 345.607,338.903 344.607,340.736 342.5,342C 312.589,342.478 282.922,342.644 253.5,342.5C 251.461,341.089 250.461,339.089 250.5,336.5 Z"/></g>
<g><path style="opacity:1" fill="#9bc9b5" d="M 289.5,316.5 C 296.167,316.5 302.833,316.5 309.5,316.5C 309.631,317.376 309.298,318.043 308.5,318.5C 302.036,317.869 295.703,317.203 289.5,316.5 Z"/></g>
<g><path style="opacity:1" fill="#6f907f" d="M 309.5,316.5 C 302.833,316.5 296.167,316.5 289.5,316.5C 291.434,312.014 294.934,310.348 300,311.5C 304.682,310.813 307.849,312.479 309.5,316.5 Z"/></g>
<g><path style="opacity:0.999" fill="#6e8f7f" d="M 292.5,286.5 C 296.833,286.5 301.167,286.5 305.5,286.5C 305.5,289.5 305.5,292.5 305.5,295.5C 301.167,295.5 296.833,295.5 292.5,295.5C 292.5,292.5 292.5,289.5 292.5,286.5 Z"/></g>
<g><path style="opacity:0.999" fill="#e94634" d="M 295.5,252.5 C 302.839,251.173 307.172,254.173 308.5,261.5C 305.305,269.923 299.972,271.59 292.5,266.5C 289.404,260.983 290.404,256.316 295.5,252.5 Z"/></g>
<g><path style="opacity:0.996" fill="#faf1a8" d="M 138.5,561.5 C 243.833,561.5 349.167,561.5 454.5,561.5C 454.5,562.167 454.5,562.833 454.5,563.5C 349.167,563.5 243.833,563.5 138.5,563.5C 138.5,562.833 138.5,562.167 138.5,561.5 Z"/></g>
<g><path style="opacity:0.004" fill="#2e2b22" d="M 190.5,601.5 C 190.783,600.711 191.283,600.044 192,599.5C 192.528,600.816 192.028,601.483 190.5,601.5 Z"/></g>
<g><path style="opacity:0.006" fill="#2c2a21" d="M 203.5,600.5 C 204.077,599.227 204.743,599.227 205.5,600.5C 205.03,601.463 204.363,601.463 203.5,600.5 Z"/></g>
<g><path style="opacity:0.005" fill="#2e2c21" d="M 213.5,599.5 C 214.289,599.783 214.956,600.283 215.5,601C 214.184,601.528 213.517,601.028 213.5,599.5 Z"/></g>
<g><path style="opacity:0.004" fill="#2e2b21" d="M 347.5,600.5 C 348.077,599.227 348.743,599.227 349.5,600.5C 349.03,601.463 348.363,601.463 347.5,600.5 Z"/></g>
<g><path style="opacity:0.005" fill="#2e2c21" d="M 383.5,599.5 C 384.773,600.077 384.773,600.743 383.5,601.5C 382.537,601.03 382.537,600.363 383.5,599.5 Z"/></g>
<g><path style="opacity:0.006" fill="#2f2d22" d="M 387.5,602.5 C 387.167,602.5 386.833,602.5 386.5,602.5C 385.615,600.73 386.448,599.73 389,599.5C 389.5,599.667 390,599.833 390.5,600C 389.429,600.852 388.429,601.685 387.5,602.5 Z"/></g>
<g><path style="opacity:0.004" fill="#2e2c21" d="M 397.5,601.5 C 396.711,601.217 396.044,600.717 395.5,600C 396.816,599.472 397.483,599.972 397.5,601.5 Z"/></g>
<g><path style="opacity:0.007" fill="#2e2d22" d="M 417.5,602.5 C 417.167,602.5 416.833,602.5 416.5,602.5C 416.74,599.707 417.74,599.207 419.5,601C 418.584,601.278 417.918,601.778 417.5,602.5 Z"/></g>
<g><path style="opacity:0.005" fill="#2f2d22" d="M 171.5,600.5 C 170.054,601.613 168.387,601.78 166.5,601C 167.962,599.372 169.628,599.205 171.5,600.5 Z"/></g>
<g><path style="opacity:0.004" fill="#2f2d21" d="M 195.5,602.5 C 195.167,602.5 194.833,602.5 194.5,602.5C 193.537,601.637 193.537,600.97 194.5,600.5C 195.298,600.957 195.631,601.624 195.5,602.5 Z"/></g>
<g><path style="opacity:0.005" fill="#2e2d22" d="M 218.5,602.5 C 218.082,601.778 217.416,601.278 216.5,601C 217.635,600.251 218.635,600.417 219.5,601.5C 219.376,602.107 219.043,602.44 218.5,602.5 Z"/></g>
<g><path style="opacity:0.008" fill="#2f2d22" d="M 406.5,599.5 C 407.043,599.56 407.376,599.893 407.5,600.5C 406.635,601.583 405.635,601.749 404.5,601C 405.416,600.722 406.082,600.222 406.5,599.5 Z"/></g>
<g><path style="opacity:0.014" fill="#494535" d="M 151.5,603.5 C 142.833,603.5 134.167,603.5 125.5,603.5C 131.109,603.111 136.609,602.111 142,600.5C 144.121,602.457 146.621,602.957 149.5,602C 148.346,601.086 148.513,600.253 150,599.5C 152.734,600.362 152.901,601.195 150.5,602C 151.056,602.383 151.389,602.883 151.5,603.5 Z"/></g>
<g><path style="opacity:0.014" fill="#484434" d="M 171.5,600.5 C 172.251,599.427 173.251,599.26 174.5,600C 175.591,601.55 176.924,602.717 178.5,603.5C 169.833,603.5 161.167,603.5 152.5,603.5C 153.952,602.698 155.618,602.198 157.5,602C 156.304,601.346 156.304,600.846 157.5,600.5C 160.131,601.724 162.965,602.391 166,602.5C 168.5,602.333 171,602.167 173.5,602C 172.956,601.283 172.289,600.783 171.5,600.5 Z"/></g>
<g><path style="opacity:0.008" fill="#474132" d="M 190.5,601.5 C 191.167,602.167 191.833,602.833 192.5,603.5C 188.167,603.5 183.833,603.5 179.5,603.5C 179.918,602.778 180.584,602.278 181.5,602C 180.294,600.982 180.627,600.482 182.5,600.5C 185.063,600.737 185.063,601.237 182.5,602C 183.833,602.667 185.167,602.667 186.5,602C 185.304,601.346 185.304,600.846 186.5,600.5C 187.728,602.176 189.061,602.509 190.5,601.5 Z"/></g>
<g><path style="opacity:0.011" fill="#3e3b2d" d="M 472.5,603.5 C 468.167,603.5 463.833,603.5 459.5,603.5C 461.411,600.34 463.578,600.007 466,602.5C 468.552,600.88 470.719,601.213 472.5,603.5 Z"/></g>
<g><path style="opacity:0.998" fill="#050705" d="M 229.5,601.5 C 230.117,601.389 230.617,601.056 231,600.5C 232.472,602.442 234.472,603.442 237,603.5C 242.957,603.303 248.957,602.637 255,601.5C 257.47,603.487 260.303,603.987 263.5,603C 262.833,602.667 262.167,602.333 261.5,602C 263.369,599.686 265.369,599.353 267.5,601C 266.376,601.249 265.376,601.749 264.5,602.5C 264.667,602.833 264.833,603.167 265,603.5C 266.66,603.676 268.326,603.009 270,601.5C 270.333,602.167 270.667,602.833 271,603.5C 272.49,602.272 273.99,602.272 275.5,603.5C 280.5,603.5 285.5,603.5 290.5,603.5C 291.833,603.167 291.833,602.833 290.5,602.5C 289.719,600.337 290.553,600.004 293,601.5C 293.333,600.833 293.667,600.167 294,599.5C 296.133,600.255 297.8,601.588 299,603.5C 302.645,602.629 305.978,601.296 309,599.5C 310.011,600.056 310.844,600.722 311.5,601.5C 312.531,602.249 313.698,602.915 315,603.5C 316.113,602.695 317.279,602.028 318.5,601.5C 321.091,603.457 323.591,603.457 326,601.5C 329.31,604.006 332.477,603.673 335.5,600.5C 335.461,601.756 335.961,602.756 337,603.5C 337.47,602.423 337.303,601.423 336.5,600.5C 337.822,600.67 338.989,600.337 340,599.5C 342.259,600.248 344.592,601.581 347,603.5C 350.118,602.603 353.118,602.603 356,603.5C 356.887,600.292 358.553,600.292 361,603.5C 362.961,603.825 364.794,603.158 366.5,601.5C 364.969,602.925 365.302,603.591 367.5,603.5C 367.833,603.5 368.167,603.5 368.5,603.5C 368.833,603.5 369.167,603.5 369.5,603.5C 371.5,603.5 373.5,603.5 375.5,603.5C 376.609,603.443 377.609,603.11 378.5,602.5C 378.833,603.833 379.167,603.833 379.5,602.5C 381.833,603.833 384.167,603.833 386.5,602.5C 386.833,603.833 387.167,603.833 387.5,602.5C 390.294,602.585 392.794,602.918 395,603.5C 395.995,602.934 396.828,602.267 397.5,601.5C 400.726,602.772 403.893,603.439 407,603.5C 408.667,602.833 410.333,602.167 412,601.5C 413.147,602.458 414.147,602.125 415,600.5C 415.278,601.416 415.778,602.082 416.5,602.5C 416.833,603.833 417.167,603.833 417.5,602.5C 418.496,602.414 419.329,602.748 420,603.5C 421.482,601.219 423.149,601.219 425,603.5C 428.333,600.833 431.667,600.833 435,603.5C 437,600.833 439,600.833 441,603.5C 442.765,602.761 444.765,602.761 447,603.5C 449.333,602.833 451.667,602.167 454,601.5C 455.762,603.262 457.595,603.928 459.5,603.5C 463.833,603.5 468.167,603.5 472.5,603.5C 475.198,603.845 477.198,605.178 478.5,607.5C 478.5,693.5 478.5,779.5 478.5,865.5C 477.746,868.091 476.079,869.924 473.5,871C 356.833,871.667 240.167,871.667 123.5,871C 119.795,869.301 117.628,866.467 117,862.5C 116.599,853.684 116.765,845.017 117.5,836.5C 117.5,831.833 117.5,827.167 117.5,822.5C 117.047,821.542 116.381,820.708 115.5,820C 116.275,815.062 116.942,810.062 117.5,805C 116.398,802.461 116.398,799.961 117.5,797.5C 116.975,796.808 116.308,796.308 115.5,796C 116.167,792.667 116.833,789.333 117.5,786C 117.112,784.192 117.112,782.525 117.5,781C 116.833,780.667 116.167,780.333 115.5,780C 116.167,777.667 116.833,775.333 117.5,773C 116.404,764.325 116.404,755.825 117.5,747.5C 117.5,737.5 117.5,727.5 117.5,717.5C 117.489,715.983 116.823,714.816 115.5,714C 116.381,713.292 117.047,712.458 117.5,711.5C 117.5,703.5 117.5,695.5 117.5,687.5C 117.131,681.351 117.131,675.018 117.5,668.5C 117.5,663.833 117.5,659.167 117.5,654.5C 116.873,641.047 116.706,626.714 117,611.5C 117.445,606.22 120.278,603.554 125.5,603.5C 134.167,603.5 142.833,603.5 151.5,603.5C 151.833,603.5 152.167,603.5 152.5,603.5C 161.167,603.5 169.833,603.5 178.5,603.5C 178.833,603.5 179.167,603.5 179.5,603.5C 183.833,603.5 188.167,603.5 192.5,603.5C 193.167,603.167 193.833,602.833 194.5,602.5C 194.833,603.833 195.167,603.833 195.5,602.5C 203.314,602.826 210.981,602.826 218.5,602.5C 218.897,603.525 219.563,603.692 220.5,603C 221.667,601.833 222.833,600.667 224,599.5C 226.096,600.715 225.929,601.549 223.5,602C 225.855,603.977 227.855,603.81 229.5,601.5 Z M 366.5,601.5 C 367.338,601.842 367.672,602.508 367.5,603.5C 365.302,603.591 364.969,602.925 366.5,601.5 Z M 305.5,602.5 C 306.077,601.227 306.743,601.227 307.5,602.5C 307.03,603.463 306.363,603.463 305.5,602.5 Z M 335.5,600.5 C 335.833,600.5 336.167,600.5 336.5,600.5C 337.303,601.423 337.47,602.423 337,603.5C 335.961,602.756 335.461,601.756 335.5,600.5 Z M 315.5,600.5 C 316.791,600.263 317.791,600.596 318.5,601.5C 317.279,602.028 316.113,602.695 315,603.5C 313.698,602.915 312.531,602.249 311.5,601.5C 313.099,601.768 314.432,601.434 315.5,600.5 Z"/></g>
<g><path style="opacity:0.008" fill="#413d2f" d="M 366.5,601.5 C 368.664,600.722 370.83,600.388 373,600.5C 373.698,601.691 374.531,602.691 375.5,603.5C 373.5,603.5 371.5,603.5 369.5,603.5C 369.167,600.833 368.833,600.833 368.5,603.5C 368.167,603.5 367.833,603.5 367.5,603.5C 367.672,602.508 367.338,601.842 366.5,601.5 Z"/></g>
<g><path style="opacity:0.008" fill="#464132" d="M 290.5,602.5 C 290.5,602.833 290.5,603.167 290.5,603.5C 285.5,603.5 280.5,603.5 275.5,603.5C 276.765,602.521 278.099,601.521 279.5,600.5C 280.696,600.846 280.696,601.346 279.5,602C 282.377,602.725 285.043,602.225 287.5,600.5C 288.265,601.612 289.265,602.279 290.5,602.5 Z"/></g>
<g><path style="opacity:0.005" fill="#2e2c22" d="M 379.5,602.5 C 379.167,602.5 378.833,602.5 378.5,602.5C 377.537,601.637 377.537,600.97 378.5,600.5C 379.298,600.957 379.631,601.624 379.5,602.5 Z"/></g>
<g><path style="opacity:0.008" fill="#2d2c21" d="M 315.5,600.5 C 314.432,601.434 313.099,601.768 311.5,601.5C 311.369,600.761 311.536,600.094 312,599.5C 313.011,600.337 314.178,600.67 315.5,600.5 Z"/></g>
<g><path style="opacity:0.004" fill="#2e2b21" d="M 245.5,599.5 C 246.289,599.783 246.956,600.283 247.5,601C 246.184,601.528 245.517,601.028 245.5,599.5 Z"/></g>
<g><path style="opacity:0.005" fill="#2d2d22" d="M 229.5,601.5 C 225.757,601.541 225.59,600.874 229,599.5C 229.464,600.094 229.631,600.761 229.5,601.5 Z"/></g>
<g><path style="opacity:1" fill="#bda067" d="M 458.5,851.5 C 458.5,775.5 458.5,699.5 458.5,623.5C 351.5,623.5 244.5,623.5 137.5,623.5C 137.5,699.5 137.5,775.5 137.5,851.5C 136.501,775.335 136.167,699.002 136.5,622.5C 244.167,622.5 351.833,622.5 459.5,622.5C 459.833,699.002 459.499,775.335 458.5,851.5 Z"/></g>
<g><path style="opacity:0.998" fill="#fefee3" d="M 458.5,851.5 C 458.167,851.5 457.833,851.5 457.5,851.5C 457.5,850.833 457.5,850.167 457.5,849.5C 457.5,774.5 457.5,699.5 457.5,624.5C 351.167,624.5 244.833,624.5 138.5,624.5C 138.5,699.5 138.5,774.5 138.5,849.5C 138.5,850.167 138.5,850.833 138.5,851.5C 138.167,851.5 137.833,851.5 137.5,851.5C 137.5,775.5 137.5,699.5 137.5,623.5C 244.5,623.5 351.5,623.5 458.5,623.5C 458.5,699.5 458.5,775.5 458.5,851.5 Z"/></g>
<g><path style="opacity:0.017" fill="#433f32" d="M 117.5,654.5 C 117.5,659.167 117.5,663.833 117.5,668.5C 116.504,668.414 115.671,668.748 115,669.5C 114.833,669 114.667,668.5 114.5,668C 115.637,663.416 116.637,658.916 117.5,654.5 Z"/></g>
<g><path style="opacity:0.996" fill="#f8efbf" d="M 886.5,827.5 C 768.5,827.5 650.5,827.5 532.5,827.5C 532.833,737.665 532.499,647.998 531.5,558.5C 649.495,556.502 767.829,555.835 886.5,556.5C 886.5,646.833 886.5,737.167 886.5,827.5 Z"/></g>
<g><path style="opacity:0.999" fill="#e9c782" d="M 884.5,823.5 C 883.501,735.668 883.167,647.668 883.5,559.5C 767.167,559.5 650.833,559.5 534.5,559.5C 534.5,648.167 534.5,736.833 534.5,825.5C 651.167,825.5 767.833,825.5 884.5,825.5C 767.668,826.5 650.668,826.833 533.5,826.5C 533.5,737.167 533.5,647.833 533.5,558.5C 650.5,558.5 767.5,558.5 884.5,558.5C 884.5,646.833 884.5,735.167 884.5,823.5 Z"/></g>
<g><path style="opacity:0.999" fill="#f5d894" d="M 884.5,823.5 C 884.5,824.167 884.5,824.833 884.5,825.5C 767.833,825.5 651.167,825.5 534.5,825.5C 534.5,736.833 534.5,648.167 534.5,559.5C 650.833,559.5 767.167,559.5 883.5,559.5C 883.167,647.668 883.501,735.668 884.5,823.5 Z"/></g>
<g><path style="opacity:1" fill="#f6f0c7" d="M 787.5,635.5 C 787.422,642.485 784.422,648.318 778.5,653C 776.833,654 775.167,655 773.5,656C 774.71,657.039 775.71,658.206 776.5,659.5C 774.528,658.549 772.528,657.549 770.5,656.5C 779.256,651.981 784.923,644.981 787.5,635.5 Z"/></g>
<g><path style="opacity:1" fill="#f5eebd" d="M 627.5,607.5 C 617.99,624.389 619.99,639.722 633.5,653.5C 625.731,648.317 621.231,640.984 620,631.5C 619.129,622.78 621.129,614.78 626,607.5C 626.69,606.262 627.19,606.262 627.5,607.5 Z"/></g>
<g><path style="opacity:1" fill="#faf5cb" d="M 658.5,594.5 C 655.287,594.19 652.287,594.523 649.5,595.5C 644.027,595.769 639.027,597.435 634.5,600.5C 633.262,600.19 633.262,599.69 634.5,599C 642.049,594.188 650.049,592.688 658.5,594.5 Z"/></g>
<g><path style="opacity:0.996" fill="#f5eec4" d="M 775.5,600.5 C 770.538,597.688 765.204,596.021 759.5,595.5C 757.031,594.683 754.365,594.183 751.5,594C 760.587,592.647 768.587,594.814 775.5,600.5 Z"/></g>
<g><path style="opacity:1" fill="#e9e0b6" d="M 685.5,572.5 C 677.255,579.987 672.422,589.321 671,600.5C 664.51,596.079 657.343,594.413 649.5,595.5C 652.287,594.523 655.287,594.19 658.5,594.5C 662.792,594.565 666.625,595.898 670,598.5C 670.94,591.626 673.273,585.293 677,579.5C 679.436,576.553 682.269,574.22 685.5,572.5 Z"/></g>
<g><path style="opacity:1" fill="#f4ecbf" d="M 750.5,595.5 C 745.836,596.333 741.503,598 737.5,600.5C 733.95,576.895 720.283,565.895 696.5,567.5C 708.953,563.763 720.119,567.096 730,577.5C 734.622,583.746 737.289,590.746 738,598.5C 742.016,595.863 746.182,594.863 750.5,595.5 Z"/></g>
<g><path style="opacity:0.999" fill="#050503" d="M 696.5,567.5 C 720.283,565.895 733.95,576.895 737.5,600.5C 741.503,598 745.836,596.333 750.5,595.5C 753.5,595.5 756.5,595.5 759.5,595.5C 765.204,596.021 770.538,597.688 775.5,600.5C 786.028,609.898 790.028,621.564 787.5,635.5C 784.923,644.981 779.256,651.981 770.5,656.5C 772.528,657.549 774.528,658.549 776.5,659.5C 786.356,668.401 790.023,679.401 787.5,692.5C 780.453,712.528 766.453,720.361 745.5,716C 742.221,715.027 739.221,713.527 736.5,711.5C 735.893,711.624 735.56,711.957 735.5,712.5C 735.5,714.5 735.5,716.5 735.5,718.5C 733.284,728.037 728.284,735.704 720.5,741.5C 717.888,742.371 715.221,743.037 712.5,743.5C 712.334,753.506 712.5,763.506 713,773.5C 720.269,762.402 728.769,752.402 738.5,743.5C 751.312,733.89 765.645,727.556 781.5,724.5C 782.492,724.672 783.158,724.338 783.5,723.5C 787.835,723.262 792.169,722.929 796.5,722.5C 806.092,722.107 809.092,726.44 805.5,735.5C 804.833,735.5 804.5,735.833 804.5,736.5C 792.685,765.648 771.685,784.648 741.5,793.5C 740.209,793.263 739.209,793.596 738.5,794.5C 730.197,795.805 721.864,796.972 713.5,798C 712.913,802.862 712.08,807.696 711,812.5C 706.998,816.122 702.665,816.456 698,813.5C 695.92,808.382 695.087,803.049 695.5,797.5C 692.833,797.5 690.167,797.5 687.5,797.5C 682.267,796.65 676.934,795.65 671.5,794.5C 649.574,789.21 631.574,777.876 617.5,760.5C 611.692,751.881 607.192,742.548 604,732.5C 603.503,730.19 603.337,727.857 603.5,725.5C 605.376,723.11 607.876,722.11 611,722.5C 647.571,725.018 675.404,741.685 694.5,772.5C 694.56,773.043 694.893,773.376 695.5,773.5C 696.823,763.675 696.823,754.008 695.5,744.5C 681.246,738.709 673.246,728.042 671.5,712.5C 668.371,714.4 665.037,715.733 661.5,716.5C 660.209,716.263 659.209,716.596 658.5,717.5C 632.359,717.024 620.026,703.691 621.5,677.5C 624.531,668.475 630.198,661.475 638.5,656.5C 637.06,655.048 635.394,654.048 633.5,653.5C 619.99,639.722 617.99,624.389 627.5,607.5C 629.5,604.833 631.833,602.5 634.5,600.5C 639.027,597.435 644.027,595.769 649.5,595.5C 657.343,594.413 664.51,596.079 671,600.5C 672.422,589.321 677.255,579.987 685.5,572.5C 689.354,571.07 693.021,569.403 696.5,567.5 Z"/></g>
<g><path style="opacity:0.999" fill="#ea4633" d="M 665.5,663.5 C 668.448,663.223 671.281,663.556 674,664.5C 675.033,669.567 677.366,673.9 681,677.5C 681.667,678.5 681.667,679.5 681,680.5C 675.793,687.375 669.626,693.208 662.5,698C 654.382,702.175 647.215,701.008 641,694.5C 636.625,684.287 639.125,676.12 648.5,670C 654.02,667.11 659.686,664.943 665.5,663.5 Z"/></g>
<g><path style="opacity:1" fill="#eee6bd" d="M 718.5,664.5 C 721.984,656.421 720.651,649.254 714.5,643C 703.676,637.939 695.842,640.772 691,651.5C 689.456,664.781 695.289,671.781 708.5,672.5C 694.893,673.058 688.393,666.391 689,652.5C 694.041,639.396 702.874,635.896 715.5,642C 722.139,648.931 723.139,656.431 718.5,664.5 Z"/></g>
<g><path style="opacity:0.999" fill="#f4d793" d="M 718.5,664.5 C 716.686,668.973 713.353,671.64 708.5,672.5C 695.289,671.781 689.456,664.781 691,651.5C 695.842,640.772 703.676,637.939 714.5,643C 720.651,649.254 721.984,656.421 718.5,664.5 Z"/></g>
<g><path style="opacity:0.999" fill="#e94533" d="M 751.5,612.5 C 765.983,611.482 772.483,618.149 771,632.5C 768.117,637.05 764.284,640.55 759.5,643C 751.723,645.778 743.723,647.611 735.5,648.5C 735.52,642.542 733.354,637.542 729,633.5C 728.333,632.5 728.333,631.5 729,630.5C 734.593,622.07 742.093,616.07 751.5,612.5 Z"/></g>
<g><path style="opacity:1" fill="#e84532" d="M 646.5,612.5 C 652.402,611.962 658.068,612.795 663.5,615C 669.928,619.423 675.761,624.59 681,630.5C 677.754,636.016 675.254,642.016 673.5,648.5C 660.95,648.93 650.117,644.93 641,636.5C 635.322,626.715 637.155,618.715 646.5,612.5 Z"/></g>
<g><path style="opacity:0.999" fill="#e94532" d="M 701.5,583.5 C 710.444,582.942 716.277,586.942 719,595.5C 721.36,606.004 720.027,616.004 715,625.5C 708.378,622.882 701.711,622.882 695,625.5C 687.342,613.922 686.676,601.922 693,589.5C 695.322,586.605 698.155,584.605 701.5,583.5 Z"/></g>
<g><path style="opacity:0.999" fill="#e94532" d="M 736.5,663.5 C 749.534,662.453 760.368,666.787 769,676.5C 774.521,687.947 771.355,695.781 759.5,700C 745.139,699.173 734.472,692.34 727.5,679.5C 732.591,675.315 735.591,669.981 736.5,663.5 Z"/></g>
<g><path style="opacity:0.999" fill="#e94633" d="M 694.5,686.5 C 697.521,687.005 700.521,687.672 703.5,688.5C 707.19,687.217 710.857,686.884 714.5,687.5C 719.055,697.038 720.555,707.038 719,717.5C 712.2,731.39 703.2,733.056 692,722.5C 689.077,716.811 688.077,710.811 689,704.5C 689.986,698.206 691.82,692.206 694.5,686.5 Z"/></g>
<g><path style="opacity:0.004" fill="#484435" d="M 117.5,687.5 C 117.5,695.5 117.5,703.5 117.5,711.5C 117.13,703.577 116.13,695.744 114.5,688C 115.448,687.517 116.448,687.351 117.5,687.5 Z"/></g>
<g><path style="opacity:1" fill="#f4eec2" d="M 787.5,692.5 C 787.948,696.703 786.781,700.703 784,704.5C 771.521,719.284 756.355,722.617 738.5,714.5C 737.808,715.025 737.308,715.692 737,716.5C 736.79,714.942 736.29,713.609 735.5,712.5C 735.56,711.957 735.893,711.624 736.5,711.5C 739.221,713.527 742.221,715.027 745.5,716C 766.453,720.361 780.453,712.528 787.5,692.5 Z"/></g>
<g><path style="opacity:0.992" fill="#f4ecc1" d="M 621.5,677.5 C 620.026,703.691 632.359,717.024 658.5,717.5C 639.53,720.783 626.696,712.116 620,691.5C 619.333,687.5 619.333,683.5 620,679.5C 620.278,678.584 620.778,677.918 621.5,677.5 Z"/></g>
<g><path style="opacity:0.02" fill="#484436" d="M 117.5,717.5 C 117.5,727.5 117.5,737.5 117.5,747.5C 116.674,742.684 116.174,737.684 116,732.5C 115.346,733.696 114.846,733.696 114.5,732.5C 116.062,727.54 117.062,722.54 117.5,717.5 Z"/></g>
<g><path style="opacity:1" fill="#f9f3c6" d="M 805.5,735.5 C 809.092,726.44 806.092,722.107 796.5,722.5C 792.169,722.929 787.835,723.262 783.5,723.5C 787.845,721.928 793.012,720.928 799,720.5C 804.139,720.804 807.305,723.471 808.5,728.5C 807.942,731.127 806.942,733.46 805.5,735.5 Z"/></g>
<g><path style="opacity:0.992" fill="#f3ecc0" d="M 695.5,744.5 C 695.827,754.015 695.494,763.348 694.5,772.5C 675.404,741.685 647.571,725.018 611,722.5C 607.876,722.11 605.376,723.11 603.5,725.5C 603.916,723.248 605.249,721.748 607.5,721C 644.243,722.618 673.077,738.452 694,768.5C 694.5,760.507 694.666,752.507 694.5,744.5C 685.105,741.616 678.271,735.616 674,726.5C 672.527,722.583 671.361,718.583 670.5,714.5C 667.536,716.516 664.536,717.182 661.5,716.5C 665.037,715.733 668.371,714.4 671.5,712.5C 673.246,728.042 681.246,738.709 695.5,744.5 Z"/></g>
<g><path style="opacity:1" fill="#efe8bd" d="M 781.5,724.5 C 765.645,727.556 751.312,733.89 738.5,743.5C 738.062,743.565 737.728,743.399 737.5,743C 750.405,732.03 765.072,725.864 781.5,724.5 Z"/></g>
<g><path style="opacity:1" fill="#f6f0c6" d="M 735.5,718.5 C 735.288,727.088 731.621,734.254 724.5,740C 723.255,740.791 721.922,741.291 720.5,741.5C 728.284,735.704 733.284,728.037 735.5,718.5 Z"/></g>
<g><path style="opacity:0.999" fill="#698d7d" d="M 779.5,741.5 C 780.873,741.343 782.207,741.51 783.5,742C 770.472,762.098 752.306,774.931 729,780.5C 740.654,761.038 757.487,748.038 779.5,741.5 Z"/></g>
<g><path style="opacity:0.999" fill="#688c7c" d="M 625.5,741.5 C 649.08,746.286 667.08,758.952 679.5,779.5C 656.113,774.781 638.113,762.114 625.5,741.5 Z"/></g>
<g><path style="opacity:0.306" fill="#26251d" d="M 513.5,542.5 C 513.5,642.5 513.5,742.5 513.5,842.5C 512.637,843.463 511.97,843.463 511.5,842.5C 511.757,784.465 512.091,727.632 512.5,672C 511.833,671.667 511.167,671.333 510.5,671C 511.357,670.311 512.023,669.478 512.5,668.5C 512.493,636.844 512.493,605.344 512.5,574C 512.385,572.105 511.718,570.438 510.5,569C 511.167,568.667 511.833,568.333 512.5,568C 512.593,560.754 512.26,553.254 511.5,545.5C 511.453,543.962 512.12,542.962 513.5,542.5 Z"/></g>
<g><path style="opacity:1" fill="#b99d68" d="M 695.5,744.5 C 696.823,754.008 696.823,763.675 695.5,773.5C 694.893,773.376 694.56,773.043 694.5,772.5C 695.494,763.348 695.827,754.015 695.5,744.5 Z"/></g>
<g><path style="opacity:0.883" fill="#1a1915" d="M 478.5,607.5 C 479.201,610.563 479.868,613.73 480.5,617C 479.351,668.476 479.351,719.81 480.5,771C 479.837,802.598 479.17,834.098 478.5,865.5C 478.5,779.5 478.5,693.5 478.5,607.5 Z"/></g>
<g><path style="opacity:1" fill="#f5eec5" d="M 804.5,736.5 C 805.097,736.735 805.43,737.235 805.5,738C 793.345,767.691 772.012,786.191 741.5,793.5C 771.685,784.648 792.685,765.648 804.5,736.5 Z"/></g>
<g><path style="opacity:1" fill="#f4edc3" d="M 617.5,760.5 C 631.574,777.876 649.574,789.21 671.5,794.5C 671.083,795.124 670.416,795.457 669.5,795.5C 647.775,790.067 630.441,778.4 617.5,760.5 Z"/></g>
<g><path style="opacity:1" fill="#f4ecc1" d="M 738.5,794.5 C 739.239,794.369 739.906,794.536 740.5,795C 732.357,797.495 724.024,798.828 715.5,799C 714.86,803.932 713.693,808.765 712,813.5C 705.543,819.291 699.876,818.625 695,811.5C 694.501,807.514 694.334,803.514 694.5,799.5C 691.126,799.326 687.793,798.826 684.5,798C 685.448,797.517 686.448,797.351 687.5,797.5C 690.167,797.5 692.833,797.5 695.5,797.5C 695.087,803.049 695.92,808.382 698,813.5C 702.665,816.456 706.998,816.122 711,812.5C 712.08,807.696 712.913,802.862 713.5,798C 721.864,796.972 730.197,795.805 738.5,794.5 Z"/></g>
<g><path style="opacity:0.998" fill="#ac8e5c" d="M 531.5,558.5 C 532.499,647.998 532.833,737.665 532.5,827.5C 650.5,827.5 768.5,827.5 886.5,827.5C 768.335,828.5 650.001,828.833 531.5,828.5C 531.5,738.5 531.5,648.5 531.5,558.5 Z"/></g>
<g><path style="opacity:0.004" fill="#4e4839" d="M 117.5,822.5 C 117.5,827.167 117.5,831.833 117.5,836.5C 116.953,834.482 115.953,832.649 114.5,831C 115.996,828.286 116.996,825.453 117.5,822.5 Z"/></g>
<g><path style="opacity:0.999" fill="#e8c581" d="M 457.5,849.5 C 457.167,849.5 456.833,849.5 456.5,849.5C 456.5,774.833 456.5,700.167 456.5,625.5C 350.833,625.5 245.167,625.5 139.5,625.5C 139.5,699.833 139.5,774.167 139.5,848.5C 245.001,848.167 350.335,848.501 455.5,849.5C 349.833,849.5 244.167,849.5 138.5,849.5C 138.5,774.5 138.5,699.5 138.5,624.5C 244.833,624.5 351.167,624.5 457.5,624.5C 457.5,699.5 457.5,774.5 457.5,849.5 Z"/></g>
<g><path style="opacity:0.999" fill="#f4d895" d="M 456.5,849.5 C 456.167,849.5 455.833,849.5 455.5,849.5C 350.335,848.501 245.001,848.167 139.5,848.5C 139.5,774.167 139.5,699.833 139.5,625.5C 245.167,625.5 350.833,625.5 456.5,625.5C 456.5,700.167 456.5,774.833 456.5,849.5 Z"/></g>
<g><path style="opacity:1" fill="#ece3b7" d="M 215.5,755.5 C 213.902,766.265 217.569,774.431 226.5,780C 231.084,781.378 235.584,782.878 240,784.5C 240.5,793.494 240.666,802.494 240.5,811.5C 240.631,812.239 240.464,812.906 240,813.5C 238.641,803.891 238.141,794.224 238.5,784.5C 219.728,782.351 212.062,772.684 215.5,755.5 Z"/></g>
<g><path style="opacity:0.996" fill="#f0eac7" d="M 246.5,827.5 C 255.435,835.79 266.101,839.957 278.5,840C 294.93,841.138 311.263,840.471 327.5,838C 337.84,834.993 345.007,828.493 349,818.5C 350.167,806.847 351.333,795.18 352.5,783.5C 369.386,782.789 377.219,774.122 376,757.5C 375.397,752.856 373.897,748.523 371.5,744.5C 377.666,730.851 380.333,716.518 379.5,701.5C 381.825,715.851 379.825,730.351 373.5,745C 378.587,755.114 378.754,765.28 374,775.5C 368.087,781.37 360.921,784.37 352.5,784.5C 352.85,795.549 352.35,806.549 351,817.5C 345.684,832.134 335.184,839.967 319.5,841C 303.167,841.667 286.833,841.667 270.5,841C 264.532,839.849 258.866,837.849 253.5,835C 250.261,833.264 247.927,830.764 246.5,827.5 Z"/></g>
<g><path style="opacity:1" fill="#fdfde1" d="M 213.5,697.5 C 213.5,699.167 213.5,700.833 213.5,702.5C 212.674,707.316 212.174,712.316 212,717.5C 211.833,714.833 211.667,712.167 211.5,709.5C 211.31,704.643 211.976,700.643 213.5,697.5 Z"/></g>
<g><path style="opacity:1" fill="#f0e8bc" d="M 310.5,633.5 C 340.882,636.486 362.382,652.153 375,680.5C 375.74,681.749 375.573,682.749 374.5,683.5C 362.609,654.873 341.276,638.206 310.5,633.5 Z"/></g>
<g><path style="opacity:1" fill="#f0e9bf" d="M 302.5,632.5 C 288.784,632.169 275.451,634.169 262.5,638.5C 262.062,638.565 261.728,638.399 261.5,638C 267.965,635.383 274.632,633.383 281.5,632C 291.889,631.148 298.889,631.314 302.5,632.5 Z"/></g>
<g><path style="opacity:0.999" fill="#060604" d="M 302.5,632.5 C 304.948,633.473 307.615,633.806 310.5,633.5C 341.276,638.206 362.609,654.873 374.5,683.5C 376.431,689.526 378.098,695.526 379.5,701.5C 380.333,716.518 377.666,730.851 371.5,744.5C 373.897,748.523 375.397,752.856 376,757.5C 377.219,774.122 369.386,782.789 352.5,783.5C 351.333,795.18 350.167,806.847 349,818.5C 345.007,828.493 337.84,834.993 327.5,838C 311.263,840.471 294.93,841.138 278.5,840C 266.101,839.957 255.435,835.79 246.5,827.5C 243.885,822.312 241.885,816.979 240.5,811.5C 240.666,802.494 240.5,793.494 240,784.5C 235.584,782.878 231.084,781.378 226.5,780C 217.569,774.431 213.902,766.265 215.5,755.5C 216.95,751.851 218.617,748.184 220.5,744.5C 214.134,731.213 211.801,717.213 213.5,702.5C 213.5,700.833 213.5,699.167 213.5,697.5C 220.028,669.642 236.362,649.976 262.5,638.5C 275.451,634.169 288.784,632.169 302.5,632.5 Z"/></g>
<g><path style="opacity:1" fill="#f8ebb6" d="M 259.5,812.5 C 262.5,812.5 265.5,812.5 268.5,812.5C 270.575,823.205 268.075,824.872 261,817.5C 259.991,815.975 259.491,814.308 259.5,812.5 Z"/></g>
<g><path style="opacity:1" fill="#f8e8af" d="M 280.5,812.5 C 283.5,812.5 286.5,812.5 289.5,812.5C 289.5,815.833 289.5,819.167 289.5,822.5C 286.5,822.5 283.5,822.5 280.5,822.5C 280.5,819.167 280.5,815.833 280.5,812.5 Z"/></g>
<g><path style="opacity:1" fill="#f6eab6" d="M 323.5,812.5 C 326.572,812.183 329.572,812.516 332.5,813.5C 331.5,817.833 328.833,820.5 324.5,821.5C 323.516,818.572 323.183,815.572 323.5,812.5 Z"/></g>
<g><path style="opacity:1" fill="#f3ebbd" d="M 301.5,812.5 C 304.5,812.5 307.5,812.5 310.5,812.5C 310.5,815.833 310.5,819.167 310.5,822.5C 307.5,822.5 304.5,822.5 301.5,822.5C 301.5,819.167 301.5,815.833 301.5,812.5 Z"/></g>
<g><path style="opacity:0.996" fill="#efd18b" d="M 303.5,813.5 C 305.167,813.5 306.833,813.5 308.5,813.5C 308.5,816.167 308.5,818.833 308.5,821.5C 306.833,821.5 305.167,821.5 303.5,821.5C 303.5,818.833 303.5,816.167 303.5,813.5 Z"/></g>
<g><path style="opacity:0.996" fill="#f9f4cc" d="M 332.5,791.5 C 332.5,794.5 332.5,797.5 332.5,800.5C 329.5,800.5 326.5,800.5 323.5,800.5C 323.979,796.089 323.312,791.922 321.5,788C 317.031,785.377 313.531,786.21 311,790.5C 310.502,793.817 310.335,797.15 310.5,800.5C 307.833,800.5 305.167,800.5 302.5,800.5C 302.335,797.482 302.502,794.482 303,791.5C 303.497,794.146 303.664,796.813 303.5,799.5C 305.167,799.5 306.833,799.5 308.5,799.5C 307.167,787.302 312,783.302 323,787.5C 324.369,791.377 325.202,795.377 325.5,799.5C 327.5,799.5 329.5,799.5 331.5,799.5C 331.194,796.615 331.527,793.948 332.5,791.5 Z"/></g>
<g><path style="opacity:1" fill="#f4edc0" d="M 239.5,678.5 C 232.183,691.59 229.683,705.59 232,720.5C 233.397,728.427 235.564,736.094 238.5,743.5C 237.141,749.077 235.475,754.577 233.5,760C 233.645,761.226 233.978,762.393 234.5,763.5C 240.805,765.395 247.139,767.229 253.5,769C 260.105,771.767 262.772,776.767 261.5,784C 261.124,789.169 260.791,794.335 260.5,799.5C 262.833,799.5 265.167,799.5 267.5,799.5C 267.146,795.363 267.646,791.363 269,787.5C 270.648,785.972 272.648,785.305 275,785.5C 277.352,785.305 279.352,785.972 281,787.5C 282.354,791.363 282.854,795.363 282.5,799.5C 284.5,799.5 286.5,799.5 288.5,799.5C 288.162,795.704 288.495,792.704 289.5,790.5C 289.5,793.833 289.5,797.167 289.5,800.5C 286.5,800.5 283.5,800.5 280.5,800.5C 280.666,796.486 280.499,792.486 280,788.5C 277.503,786.522 274.669,786.022 271.5,787C 270.299,787.903 269.465,789.069 269,790.5C 268.502,793.817 268.335,797.15 268.5,800.5C 265.102,800.82 261.768,800.487 258.5,799.5C 259.318,793.54 259.985,787.54 260.5,781.5C 260.111,773.944 256.111,769.777 248.5,769C 244.203,767.842 239.869,766.842 235.5,766C 234.333,765.5 233.5,764.667 233,763.5C 232.333,761.167 232.333,758.833 233,756.5C 234.798,752.274 236.298,747.94 237.5,743.5C 234.097,735.791 231.597,727.791 230,719.5C 229.066,710.381 229.733,701.381 232,692.5C 233.751,687.326 236.251,682.659 239.5,678.5 Z"/></g>
<g><path style="opacity:1" fill="#f2eabc" d="M 362.5,707.5 C 362.595,712.887 362.095,718.22 361,723.5C 358.53,729.744 356.363,736.077 354.5,742.5C 356.468,748.239 358.135,754.072 359.5,760C 359.729,763.603 358.062,765.436 354.5,765.5C 353.761,765.631 353.094,765.464 352.5,765C 356.23,764.767 357.896,762.767 357.5,759C 356.565,753.292 354.898,747.792 352.5,742.5C 357.503,731.175 360.836,719.508 362.5,707.5 Z"/></g>
<g><path style="opacity:1" fill="#f4eec4" d="M 318.5,652.5 C 336.779,658.273 349.946,669.94 358,687.5C 359.893,692.007 361.059,696.673 361.5,701.5C 361.66,703.199 361.494,704.866 361,706.5C 359.326,688.651 351.493,674.151 337.5,663C 330.887,658.745 324.554,655.245 318.5,652.5 Z"/></g>
<g><path style="opacity:1" fill="#f8f4ca" d="M 260.5,658.5 C 252.868,664.464 245.868,671.131 239.5,678.5C 244.551,669.782 251.551,663.115 260.5,658.5 Z"/></g>
<g><path style="opacity:0.999" fill="#f4d793" d="M 303.5,649.5 C 308.794,649.625 313.794,650.625 318.5,652.5C 324.554,655.245 330.887,658.745 337.5,663C 351.493,674.151 359.326,688.651 361,706.5C 361.494,704.866 361.66,703.199 361.5,701.5C 362.461,703.265 362.795,705.265 362.5,707.5C 360.836,719.508 357.503,731.175 352.5,742.5C 354.898,747.792 356.565,753.292 357.5,759C 357.896,762.767 356.23,764.767 352.5,765C 353.094,765.464 353.761,765.631 354.5,765.5C 348.244,767.152 341.911,768.985 335.5,771C 332.534,773.265 331.201,776.265 331.5,780C 332.069,783.817 332.403,787.651 332.5,791.5C 331.527,793.948 331.194,796.615 331.5,799.5C 329.5,799.5 327.5,799.5 325.5,799.5C 325.202,795.377 324.369,791.377 323,787.5C 312,783.302 307.167,787.302 308.5,799.5C 306.833,799.5 305.167,799.5 303.5,799.5C 303.664,796.813 303.497,794.146 303,791.5C 302.502,794.482 302.335,797.482 302.5,800.5C 301.677,797.023 301.177,793.356 301,789.5C 296.683,785.307 292.85,785.64 289.5,790.5C 288.495,792.704 288.162,795.704 288.5,799.5C 286.5,799.5 284.5,799.5 282.5,799.5C 282.854,795.363 282.354,791.363 281,787.5C 279.352,785.972 277.352,785.305 275,785.5C 272.648,785.305 270.648,785.972 269,787.5C 267.646,791.363 267.146,795.363 267.5,799.5C 265.167,799.5 262.833,799.5 260.5,799.5C 260.791,794.335 261.124,789.169 261.5,784C 262.772,776.767 260.105,771.767 253.5,769C 247.139,767.229 240.805,765.395 234.5,763.5C 233.978,762.393 233.645,761.226 233.5,760C 235.475,754.577 237.141,749.077 238.5,743.5C 235.564,736.094 233.397,728.427 232,720.5C 229.683,705.59 232.183,691.59 239.5,678.5C 245.868,671.131 252.868,664.464 260.5,658.5C 274.344,652.653 288.677,649.653 303.5,649.5 Z"/></g>
<g><path style="opacity:1" fill="#f7f1c3" d="M 279.5,762.5 C 278.846,766.839 279.846,770.673 282.5,774C 287.789,774.277 292.289,772.444 296,768.5C 299.499,772.173 303.666,774.007 308.5,774C 311.545,771.899 312.878,768.899 312.5,765C 312.345,761.708 311.678,758.541 310.5,755.5C 310.435,755.062 310.601,754.728 311,754.5C 314.814,760.712 315.147,767.045 312,773.5C 310.649,775.01 308.982,776.01 307,776.5C 303.061,775.03 299.394,773.03 296,770.5C 292.117,775.009 287.284,776.509 281.5,775C 279.205,772.455 277.871,769.455 277.5,766C 277.503,763.686 278.169,762.519 279.5,762.5 Z"/></g>
<g><path style="opacity:1" fill="#f6f0c2" d="M 309.5,753.5 C 306.478,746.622 302.812,740.122 298.5,734C 294.316,732.835 291.483,734.335 290,738.5C 286.342,745.32 283.175,752.32 280.5,759.5C 282.311,750.018 286.311,741.184 292.5,733C 297.325,730.988 300.825,732.488 303,737.5C 305.5,742.5 308,747.5 310.5,752.5C 310.376,753.107 310.043,753.44 309.5,753.5 Z"/></g>
<g><path style="opacity:1" fill="#f4f0c8" d="M 329.5,748.5 C 342.586,749.406 349.92,743.406 351.5,730.5C 352.314,728.369 352.814,726.036 353,723.5C 354.051,741.937 346.217,750.27 329.5,748.5 Z"/></g>
<g><path style="opacity:0.999" fill="#050603" d="M 309.5,753.5 C 309.328,754.492 309.662,755.158 310.5,755.5C 311.678,758.541 312.345,761.708 312.5,765C 312.878,768.899 311.545,771.899 308.5,774C 303.666,774.007 299.499,772.173 296,768.5C 292.289,772.444 287.789,774.277 282.5,774C 279.846,770.673 278.846,766.839 279.5,762.5C 280.404,761.791 280.737,760.791 280.5,759.5C 283.175,752.32 286.342,745.32 290,738.5C 291.483,734.335 294.316,732.835 298.5,734C 302.812,740.122 306.478,746.622 309.5,753.5 Z"/></g>
<g><path style="opacity:0.992" fill="#f7f1c6" d="M 245.5,708.5 C 239.585,718.904 239.085,729.57 244,740.5C 251.886,749.309 261.053,750.809 271.5,745C 285.634,735.573 290.301,722.739 285.5,706.5C 285.435,706.062 285.601,705.728 286,705.5C 291.997,725.356 285.497,739.856 266.5,749C 254.833,751.899 246.333,748.065 241,737.5C 239.594,731.558 239.261,725.558 240,719.5C 240.805,715.224 242.638,711.557 245.5,708.5 Z"/></g>
<g><path style="opacity:1" fill="#f4eec3" d="M 351.5,722.5 C 347.605,703.757 336.272,695.924 317.5,699C 308.17,703.48 303.837,710.98 304.5,721.5C 302.07,703.795 311.07,695.628 331.5,697C 344.244,701.193 350.911,709.693 351.5,722.5 Z"/></g>
<g><path style="opacity:0.999" fill="#040503" d="M 351.5,722.5 C 351.5,725.167 351.5,727.833 351.5,730.5C 349.92,743.406 342.586,749.406 329.5,748.5C 315.981,744.314 307.647,735.314 304.5,721.5C 303.837,710.98 308.17,703.48 317.5,699C 336.272,695.924 347.605,703.757 351.5,722.5 Z"/></g>
<g><path style="opacity:0.999" fill="#050604" d="M 285.5,706.5 C 290.301,722.739 285.634,735.573 271.5,745C 261.053,750.809 251.886,749.309 244,740.5C 239.085,729.57 239.585,718.904 245.5,708.5C 255.219,696.993 266.885,694.493 280.5,701C 282.402,702.73 284.069,704.563 285.5,706.5 Z"/></g>
<g><path style="opacity:0.984" fill="#f2ecc6" d="M 303.5,649.5 C 288.677,649.653 274.344,652.653 260.5,658.5C 261.749,656.864 263.416,655.697 265.5,655C 277.683,650.06 290.349,648.226 303.5,649.5 Z"/></g>
<g><path style="opacity:0.998" fill="#fbf4b6" d="M 138.5,849.5 C 244.167,849.5 349.833,849.5 455.5,849.5C 455.833,849.5 456.167,849.5 456.5,849.5C 456.833,849.5 457.167,849.5 457.5,849.5C 457.5,850.167 457.5,850.833 457.5,851.5C 351.167,851.5 244.833,851.5 138.5,851.5C 138.5,850.833 138.5,850.167 138.5,849.5 Z"/></g>
</svg>
