<svg width="64" height="64" viewBox="0 0 64 64" xmlns="http://www.w3.org/2000/svg">
  <defs>
    <filter id="glow">
      <feGaussianBlur stdDeviation="4" result="blur"/>
      <feFlood flood-color="#0ff"/>
      <feComposite in2="blur" operator="in"/>
      <feMerge>
        <feMergeNode/>
        <feMergeNode in="SourceGraphic"/>
      </feMerge>
    </filter>
  </defs>
  <rect width="64" height="64" rx="12" fill="#f5f5dc"/>
  <path d="M32 14c-8 0-12 6-8 12 4 6 10 4 10-2 0-4-2-6-6-6-2 0-4 2-4 4 0 4 6 8 10 12 4 4 6 8 6 12v4" stroke="#8b0000" stroke-width="6" fill="none" stroke-linecap="round"/>
  <circle cx="32" cy="52" r="3" fill="#8b0000"/>
  <path d="M16 36h32c2 0 4 2 4 4v8c0 2-2 4-4 4H16c-2 0-4-2-4-4v-8c0-2 2-4 4-4Z" fill="#f5f5dc" stroke="#000" stroke-width="3"/>
  <path d="M16 36c-4 0-8 4-8 8v4c0 4 4 8 8 8" fill="none" stroke="#000" stroke-width="3"/>
  <path d="M48 36c4 0 8 4 8 8v4c0 4-4 8-8 8" fill="none" stroke="#000" stroke-width="3"/>
  <text x="32" y="48" font-family="Arial Black, sans-serif" font-size="14" font-weight="900" fill="#000" text-anchor="middle" letter-spacing="2">BLOG</text>
  <path d="M32 54c-2 0-3-1-3-2s1-2 3-2 3 1 3 2-1 2-3 2Z" fill="#ff0000" stroke="#000" stroke-width="1.5"/>
  <path d="M32 50v8m-4-4h8" stroke="#000" stroke-width="2" stroke-linecap="round"/>
  <rect width="64" height="64" rx="12" fill="none" stroke="#000" stroke-width="4"/>
  <rect width="64" height="64" rx="12" fill="none" stroke="#0ff" stroke-width="2" opacity="0.4" filter="url(#glow)"/>
</svg>

